<svg width="570" height="440" viewBox="0 0 570 440" fill="none" xmlns="http://www.w3.org/2000/svg"><g filter="url(#filter0_d)"><rect x="107" y="26" width="430" height="306" rx="8.5" fill="#fff"/><rect x="128.2" y="47.3" width="194.2" height="62.8" rx="4.7" fill="#fff"/><rect x="192.1" y="70.6" width="116.3" height="9.3" rx="4.7" fill="#8F99A6" fill-opacity=".2"/><rect x="192.1" y="88" width="9.3" height="9.3" rx="1.2" fill="#8F99A6" fill-opacity=".2"/><rect x="206.1" y="88" width="9.3" height="9.3" rx="1.2" fill="#8F99A6" fill-opacity=".2"/><rect x="220" y="88" width="9.3" height="9.3" rx="1.2" fill="#8F99A6" fill-opacity=".2"/><rect x="192.1" y="61.3" width="103.5" height="5.8" rx="2.9" fill="#9EA9B8" fill-opacity=".7"/><circle cx="160.7" cy="76.4" r="15.1" fill="#9EA9B8" fill-opacity=".7"/><g clip-path="url(#clip0)"><path d="M160.7 79.9c3.7 0 6.7-2.9 6.7-6.4 0-3.5-3-6.4-6.7-6.4a6.5 6.5 0 00-6.6 6.4c0 3.5 3 6.4 6.6 6.4zm5 1.6l-2.5 9.6-1.7-6.8 1.7-2.8h-5l1.7 2.8-1.7 6.8-2.5-9.6c-3.7.2-6.6 3.1-6.6 6.7v2.1c0 1.3 1.1 2.4 2.5 2.4h18.3c1.3 0 2.4-1 2.4-2.4v-2c0-3.7-3-6.6-6.6-6.8z" fill="#fff" fill-opacity=".6"/></g><rect x="128.2" y="118.1" width="194.2" height="62.8" rx="4.7" fill="#fff"/><rect x="192.1" y="141.3" width="116.3" height="9.3" rx="4.7" fill="#8F99A6" fill-opacity=".2"/><rect x="192.1" y="158.8" width="9.3" height="9.3" rx="1.2" fill="#8F99A6" fill-opacity=".2"/><rect x="206.1" y="158.8" width="9.3" height="9.3" rx="1.2" fill="#8F99A6" fill-opacity=".2"/><rect x="220" y="158.8" width="9.3" height="9.3" rx="1.2" fill="#8F99A6" fill-opacity=".2"/><rect x="192.1" y="132" width="103.5" height="5.8" rx="2.9" fill="#9EA9B8" fill-opacity=".7"/><circle cx="160.7" cy="147.1" r="15.1" fill="#9EA9B8" fill-opacity=".7"/><g clip-path="url(#clip1)"><path d="M160.7 150.6c3.7 0 6.7-2.8 6.7-6.4 0-3.5-3-6.4-6.7-6.4a6.5 6.5 0 00-6.6 6.4c0 3.6 3 6.4 6.6 6.4zm5 1.7l-2.5 9.5-1.7-6.8 1.7-2.8h-5l1.7 2.8-1.7 6.8-2.5-9.5c-3.7.1-6.6 3-6.6 6.6v2.1c0 1.3 1.1 2.4 2.5 2.4h18.3c1.3 0 2.4-1 2.4-2.4v-2c0-3.7-3-6.6-6.6-6.7z" fill="#fff" fill-opacity=".6"/></g><rect x="128.2" y="188.8" width="194.2" height="62.8" rx="4.7" fill="#fff"/><rect x="192.1" y="212" width="116.3" height="9.3" rx="4.7" fill="#8F99A6" fill-opacity=".2"/><rect x="192.1" y="229.5" width="9.3" height="9.3" rx="1.2" fill="#8F99A6" fill-opacity=".2"/><rect x="206.1" y="229.5" width="9.3" height="9.3" rx="1.2" fill="#8F99A6" fill-opacity=".2"/><rect x="220" y="229.5" width="9.3" height="9.3" rx="1.2" fill="#8F99A6" fill-opacity=".2"/><rect x="192.1" y="202.7" width="103.5" height="5.8" rx="2.9" fill="#9EA9B8" fill-opacity=".7"/><circle cx="160.7" cy="217.9" r="15.1" fill="#9EA9B8" fill-opacity=".7"/><g clip-path="url(#clip2)"><path d="M160.7 221.4c3.7 0 6.7-3 6.7-6.4 0-3.6-3-6.4-6.7-6.4a6.5 6.5 0 00-6.6 6.4c0 3.5 3 6.4 6.6 6.4zm5 1.6l-2.5 9.5-1.7-6.8 1.7-2.7h-5l1.7 2.8-1.7 6.7-2.5-9.5c-3.7.2-6.6 3-6.6 6.7v2c0 1.4 1.1 2.4 2.5 2.4h18.3c1.3 0 2.4-1 2.4-2.4v-2c0-3.6-3-6.5-6.6-6.7z" fill="#fff" fill-opacity=".6"/></g><rect x="128.2" y="259.5" width="194.2" height="62.8" rx="4.7" fill="#fff"/><rect x="192.1" y="282.8" width="116.3" height="9.3" rx="4.7" fill="#8F99A6" fill-opacity=".2"/><rect x="192.1" y="300.2" width="9.3" height="9.3" rx="1.2" fill="#8F99A6" fill-opacity=".2"/><rect x="206.1" y="300.2" width="9.3" height="9.3" rx="1.2" fill="#8F99A6" fill-opacity=".2"/><rect x="220" y="300.2" width="9.3" height="9.3" rx="1.2" fill="#8F99A6" fill-opacity=".2"/><rect x="192.1" y="273.5" width="103.5" height="5.8" rx="2.9" fill="#9EA9B8" fill-opacity=".7"/><circle cx="160.7" cy="288.6" r="15.1" fill="#9EA9B8" fill-opacity=".7"/><g clip-path="url(#clip3)"><path d="M160.7 292c3.7 0 6.7-2.8 6.7-6.3 0-3.6-3-6.4-6.7-6.4a6.5 6.5 0 00-6.6 6.4c0 3.5 3 6.4 6.6 6.4zm5 1.7l-2.5 9.6-1.7-6.8 1.7-2.8h-5l1.7 2.8-1.7 6.8-2.5-9.6c-3.7.2-6.6 3-6.6 6.7v2c0 1.4 1.1 2.5 2.5 2.5h18.3c1.3 0 2.4-1.1 2.4-2.4v-2.1c0-3.6-3-6.5-6.6-6.7z" fill="#fff" fill-opacity=".6"/></g><rect x="322.6" y="47.3" width="194.2" height="62.8" rx="4.7" fill="#fff"/><rect x="386.6" y="70.6" width="116.3" height="9.3" rx="4.7" fill="#8F99A6" fill-opacity=".2"/><rect x="386.6" y="88" width="9.3" height="9.3" rx="1.2" fill="#8F99A6" fill-opacity=".2"/><rect x="400.6" y="88" width="9.3" height="9.3" rx="1.2" fill="#8F99A6" fill-opacity=".2"/><rect x="414.5" y="88" width="9.3" height="9.3" rx="1.2" fill="#8F99A6" fill-opacity=".2"/><rect x="386.6" y="61.3" width="103.5" height="5.8" rx="2.9" fill="#9EA9B8" fill-opacity=".7"/><circle cx="355.2" cy="76.4" r="15.1" fill="#9EA9B8" fill-opacity=".7"/><g clip-path="url(#clip4)"><path d="M355.2 79.9c3.7 0 6.7-2.9 6.7-6.4 0-3.5-3-6.4-6.7-6.4a6.5 6.5 0 00-6.6 6.4c0 3.5 3 6.4 6.6 6.4zm5 1.6l-2.5 9.6-1.7-6.8 1.7-2.8h-5l1.7 2.8-1.7 6.8-2.5-9.6c-3.7.2-6.6 3.1-6.6 6.7v2.1c0 1.3 1.1 2.4 2.5 2.4h18.2c1.4 0 2.5-1 2.5-2.4v-2c0-3.7-3-6.6-6.6-6.8z" fill="#fff" fill-opacity=".6"/></g><rect x="322.6" y="118.1" width="194.2" height="62.8" rx="4.7" fill="#fff"/><rect x="386.6" y="141.3" width="116.3" height="9.3" rx="4.7" fill="#8F99A6" fill-opacity=".2"/><rect x="386.6" y="158.8" width="9.3" height="9.3" rx="1.2" fill="#8F99A6" fill-opacity=".2"/><rect x="400.6" y="158.8" width="9.3" height="9.3" rx="1.2" fill="#8F99A6" fill-opacity=".2"/><rect x="414.5" y="158.8" width="9.3" height="9.3" rx="1.2" fill="#8F99A6" fill-opacity=".2"/><rect x="386.6" y="132" width="103.5" height="5.8" rx="2.9" fill="#9EA9B8" fill-opacity=".7"/><circle cx="355.2" cy="147.1" r="15.1" fill="#9EA9B8" fill-opacity=".7"/><g clip-path="url(#clip5)"><path d="M355.2 150.6c3.7 0 6.7-2.8 6.7-6.4 0-3.5-3-6.4-6.7-6.4a6.5 6.5 0 00-6.6 6.4c0 3.6 3 6.4 6.6 6.4zm5 1.7l-2.5 9.5-1.7-6.8 1.7-2.8h-5l1.7 2.8-1.7 6.8-2.5-9.5c-3.7.1-6.6 3-6.6 6.6v2.1c0 1.3 1.1 2.4 2.5 2.4h18.2c1.4 0 2.5-1 2.5-2.4v-2c0-3.7-3-6.6-6.6-6.7z" fill="#fff" fill-opacity=".6"/></g><rect x="322.6" y="188.8" width="194.2" height="62.8" rx="4.7" fill="#fff"/><rect x="386.6" y="212" width="116.3" height="9.3" rx="4.7" fill="#8F99A6" fill-opacity=".2"/><rect x="386.6" y="229.5" width="9.3" height="9.3" rx="1.2" fill="#8F99A6" fill-opacity=".2"/><rect x="400.6" y="229.5" width="9.3" height="9.3" rx="1.2" fill="#8F99A6" fill-opacity=".2"/><rect x="414.5" y="229.5" width="9.3" height="9.3" rx="1.2" fill="#8F99A6" fill-opacity=".2"/><rect x="386.6" y="202.7" width="103.5" height="5.8" rx="2.9" fill="#9EA9B8" fill-opacity=".7"/><circle cx="355.2" cy="217.9" r="15.1" fill="#9EA9B8" fill-opacity=".7"/><g clip-path="url(#clip6)"><path d="M355.2 221.4c3.7 0 6.7-3 6.7-6.4 0-3.6-3-6.4-6.7-6.4a6.5 6.5 0 00-6.6 6.4c0 3.5 3 6.4 6.6 6.4zm5 1.6l-2.5 9.5-1.7-6.8 1.7-2.7h-5l1.7 2.8-1.7 6.7-2.5-9.5c-3.7.2-6.6 3-6.6 6.7v2c0 1.4 1.1 2.4 2.5 2.4h18.2c1.4 0 2.5-1 2.5-2.4v-2c0-3.6-3-6.5-6.6-6.7z" fill="#fff" fill-opacity=".6"/></g><rect x="322.6" y="259.5" width="194.2" height="62.8" rx="4.7" fill="#fff"/><rect x="386.6" y="282.8" width="116.3" height="9.3" rx="4.7" fill="#8F99A6" fill-opacity=".2"/><rect x="386.6" y="300.2" width="9.3" height="9.3" rx="1.2" fill="#8F99A6" fill-opacity=".2"/><rect x="400.6" y="300.2" width="9.3" height="9.3" rx="1.2" fill="#8F99A6" fill-opacity=".2"/><rect x="414.5" y="300.2" width="9.3" height="9.3" rx="1.2" fill="#8F99A6" fill-opacity=".2"/><rect x="386.6" y="273.5" width="103.5" height="5.8" rx="2.9" fill="#9EA9B8" fill-opacity=".7"/><circle cx="355.2" cy="288.6" r="15.1" fill="#9EA9B8" fill-opacity=".7"/><g clip-path="url(#clip7)"><path d="M355.2 292c3.7 0 6.7-2.8 6.7-6.3 0-3.6-3-6.4-6.7-6.4a6.5 6.5 0 00-6.6 6.4c0 3.5 3 6.4 6.6 6.4zm5 1.7l-2.5 9.6-1.7-6.8 1.7-2.8h-5l1.7 2.8-1.7 6.8-2.5-9.6c-3.7.2-6.6 3-6.6 6.7v2c0 1.4 1.1 2.5 2.5 2.5h18.2c1.4 0 2.5-1.1 2.5-2.4v-2.1c0-3.6-3-6.5-6.6-6.7z" fill="#fff" fill-opacity=".6"/></g></g><g filter="url(#filter1_d)"><g clip-path="url(#clip8)"><path d="M52 81.8c0-3.8 3-6.8 6.8-6.8h220.3c3.8 0 6.9 3 6.9 6.8v362c0 3.9-3.1 7-7 7H58.9c-3.8 0-6.9-3.1-6.9-7v-362z" fill="#fff"/><path d="M71.2 93.1c-1 0-1.7.3-2.2 1-.5.6-.8 1.4-.8 2.5s.2 2 .8 2.6c.5.6 1.2 1 2.2 1 .6 0 1.3-.2 2-.4v.9c-.5.2-1.3.3-2.1.3-1.3 0-2.3-.4-3-1.2-.6-.7-1-1.8-1-3.2 0-.9.2-1.7.5-2.3.3-.7.8-1.2 1.4-1.5.7-.4 1.4-.6 2.2-.6 1 0 1.7.2 2.4.5l-.4.9c-.7-.3-1.3-.5-2-.5zm6.7 1.3h.7v1l-.8-.2c-.5 0-1 .3-1.3.7-.4.4-.6 1-.6 1.5v3.5h-1v-6.4h.9v1.2h.1c.3-.5.5-.8.9-1a2 2 0 011-.3zm4.6 6.6a3 3 0 01-2.2-.9c-.5-.5-.8-1.3-.8-2.4 0-1 .2-1.8.7-2.4.6-.6 1.2-1 2.1-1 .8 0 1.4.3 1.9.9.5.5.7 1.2.7 2v.7h-4.4c0 .7.2 1.3.6 1.7.3.4.8.5 1.5.5s1.4-.1 2-.4v.9a5 5 0 01-2 .4zm-.2-5.8c-.5 0-1 .1-1.2.5-.4.3-.5.8-.6 1.4H84c0-.6-.2-1.1-.4-1.4-.3-.4-.7-.5-1.2-.5zm8.2 5.7l-.2-1c-.4.5-.7.7-1 .9a3 3 0 01-1.2.2c-.6 0-1.1-.2-1.5-.5-.3-.3-.5-.8-.5-1.4 0-1.3 1-2 3-2h1.2v-.5c0-.5-.1-.8-.4-1-.2-.3-.5-.4-1-.4s-1.1.1-1.8.5l-.3-.8a4.6 4.6 0 012.2-.5c.7 0 1.3.1 1.7.5.3.3.5.9.5 1.6v4.4h-.7zm-2.2-.7c.6 0 1-.2 1.4-.5.4-.3.5-.8.5-1.4v-.6h-1c-.7.1-1.3.2-1.6.4-.3.2-.5.6-.5 1s.1.6.3.8c.2.2.5.3.9.3zm7 0a3.5 3.5 0 00.9-.1v.7l-.5.1H95c-1.2 0-1.8-.6-1.8-1.9v-3.8h-1v-.4l1-.4.4-1.4h.6v1.5H96v.7h-1.8V99c0 .4 0 .7.2.9.2.2.5.3.8.3zm4.8.8a3 3 0 01-2.2-.9c-.5-.5-.8-1.3-.8-2.4 0-1 .2-1.8.7-2.4.6-.6 1.2-1 2-1 .9 0 1.5.3 2 .9.5.5.7 1.2.7 2v.7h-4.4c0 .7.2 1.3.6 1.7.3.4.8.5 1.5.5s1.3-.1 2-.4v.9a5 5 0 01-2 .4zm-.2-5.8c-.5 0-1 .1-1.2.5-.4.3-.5.8-.6 1.4h3.4c0-.6-.2-1.1-.5-1.4-.2-.4-.6-.5-1.1-.5zm11.7 5.7v-4.2c0-.5 0-.9-.3-1.1-.3-.3-.6-.4-1.1-.4-.7 0-1.2.2-1.5.5-.3.4-.5 1-.5 1.8v3.4h-1v-6.4h.9l.1.9c.3-.4.5-.6.9-.8.3-.2.7-.2 1.2-.2.8 0 1.3.1 1.7.5.4.4.6 1 .6 1.8v4.2h-1zm5.7 0a3 3 0 01-2.2-.8c-.6-.5-.8-1.3-.8-2.4 0-1 .2-1.8.7-2.4.5-.6 1.2-1 2-1 .9 0 1.5.3 2 .9.4.5.7 1.2.7 2v.7h-4.4c0 .7.2 1.3.5 1.7.4.4.9.5 1.5.5.7 0 1.4-.1 2-.4v.9a5 5 0 01-2 .4zm-.3-5.7c-.5 0-.9.1-1.2.5-.3.3-.5.8-.5 1.4h3.3c0-.6-.1-1.1-.4-1.4-.3-.4-.6-.5-1.2-.5zm9.5 5.7l-1.1-3.8-.4-1.5-.5 1.5-1.2 3.8h-1.1l-1.8-6.4h1l1 3.6.4 1.7a13.5 13.5 0 01.5-1.7l1.1-3.6h1l1.2 3.6.5 1.7.1-.6 1.3-4.7h1l-1.8 6.4h-1.2zm8.6 0l-2.4-6.4h1l1.4 3.8.6 1.7.4-1.3 1.6-4.2h1l-2.4 6.4H135zm5.6 0h-1v-6.4h1v6.4zm-1-8.2l.1-.4.4-.2c.2 0 .3 0 .4.2l.2.4c0 .3 0 .4-.2.5l-.4.2c-.1 0-.3 0-.4-.2-.1 0-.2-.2-.2-.5zm5.8 8.3a3 3 0 01-2.3-.9c-.5-.5-.8-1.3-.8-2.4 0-1 .2-1.8.8-2.4.5-.6 1.1-1 2-1 .8 0 1.4.3 2 .9.4.5.6 1.2.6 2v.7h-4.4c0 .7.2 1.3.6 1.7.3.4.8.5 1.5.5s1.4-.1 2-.4v.9a5 5 0 01-2 .4zm-.3-5.8c-.5 0-1 .1-1.2.5-.3.3-.5.8-.6 1.4h3.4c0-.6-.2-1.1-.4-1.4-.3-.4-.7-.5-1.2-.5zm9.5 5.7l-1.2-3.8-.4-1.5-.5 1.5-1.2 3.8h-1l-1.8-6.4h1a1781.8 1781.8 0 011.3 5.3 13 13 0 01.5-1.7l1.2-3.6h1l1.2 3.6.4 1.7.2-.6 1.2-4.7h1l-1.8 6.4h-1.1z" fill="#282F36"/><rect x="67" y="127.9" width="28.7" height="28.7" rx="2.9" fill="#F4AD3D"/><path d="M81.4 139v6.7M78 142.3h6.7" stroke="#fff" stroke-width="1.4" stroke-linecap="round" stroke-linejoin="round"/><path d="M108.9 132.5h2.1c1 0 1.7.1 2.1.4.5.3.7.8.7 1.4 0 .4-.1.8-.3 1-.2.3-.5.5-1 .6.6.1 1 .3 1.2.6.2.3.3.6.3 1.1 0 .7-.2 1.2-.7 1.5-.4.4-1 .6-1.8.6h-2.6v-7.2zm1.2 3h1c.6 0 1-.1 1.2-.3.2-.1.3-.4.3-.8 0-.3-.1-.6-.4-.7-.2-.2-.6-.2-1.1-.2h-1v2zm0 1v2.2h1.2c.5 0 .9-.1 1.1-.3.3-.2.4-.5.4-.9s-.1-.6-.4-.8a2 2 0 00-1.2-.3h-1.1zm6.4 3.2h-1.1V132h1.1v7.7zm5 0l-.1-.8c-.3.3-.6.6-.9.7l-1 .2c-.5 0-1-.2-1.2-.5-.3-.3-.5-.7-.5-1.2s.2-1 .6-1.3c.5-.2 1-.4 2-.4h.9v-.3c0-.4-.1-.6-.3-.8-.1-.2-.4-.3-.7-.3l-.8.1a6 6 0 00-.8.3l-.3-.8a4.4 4.4 0 012-.5c.6 0 1.1.2 1.5.5.3.3.5.8.5 1.4v3.7h-.8zm-1.6-.8c.4 0 .7-.1 1-.4.2-.2.4-.5.4-1v-.4h-.7c-.6 0-1 .1-1.2.3-.3.1-.4.4-.4.7 0 .3 0 .5.2.6l.7.2zm8.9.8h-1.2v-3.4c0-.4 0-.7-.2-1l-.8-.2c-.5 0-.9.1-1 .4-.3.3-.4.8-.4 1.5v2.7H124v-5.5h1v.8h.2c.1-.3.3-.5.6-.6l1-.3c1.4 0 2 .7 2 2v3.6zm2.7-2.9l.7-.8 1.6-1.8h1.3l-2.1 2.4 2.3 3h-1.4l-1.7-2.3-.6.5v1.9h-1.2V132h1.2v3.8l-.1 1zm11.5-4.3h1.2l-2.5 7.2h-1.3l-2.5-7.2h1.3l1.5 4.5a9.5 9.5 0 01.4 1.5 9.5 9.5 0 01.4-1.6l1.5-4.4zm3.2 7.2H145v-5.5h1.2v5.5zm-1.2-6.9l.1-.5.5-.1.5.1.2.5-.2.5-.5.1-.5-.1a.6.6 0 01-.1-.5zm5.2 7c-.8 0-1.5-.3-2-.8s-.7-1.1-.7-2c0-.9.2-1.6.7-2.1.4-.5 1-.8 1.8-.8.7 0 1.3.3 1.7.7.4.4.6 1 .6 1.8v.6h-3.6c0 .5.2 1 .4 1.2.3.3.7.5 1.2.5a4.2 4.2 0 001.7-.4v.9l-.8.3h-1zm-.2-4.8c-.4 0-.7.1-.9.4-.2.2-.3.5-.4 1h2.5c0-.5-.1-.8-.3-1-.3-.3-.5-.4-1-.4zm8 4.7l-.6-2.6-.5-1.8-.5 1.8-.7 2.6h-1.3l-1.5-5.5h1.2l.7 2.7.3 1.7a10.8 10.8 0 01.4-1.5l.8-2.9h1.2l.8 2.9a10 10 0 01.4 1.5l.3-1.7.7-2.7h1.2l-1.5 5.5H158z" fill="#282F36" fill-opacity=".8"/><path d="M111.7 147.7c-.7 0-1.3.2-1.7.7a3 3 0 00-.7 2c0 .9.2 1.6.6 2 .5.5 1 .7 1.8.7.5 0 1 0 1.6-.2v.7l-1.7.2c-1 0-1.8-.3-2.3-.9-.5-.6-.8-1.4-.8-2.5 0-.7.1-1.3.4-1.8.2-.5.6-1 1-1.2.6-.3 1.2-.4 1.8-.4.7 0 1.3.1 1.8.4l-.3.6-1.5-.3zm5.2 1h.6l-.1.7h-.6c-.4 0-.7.1-1 .4-.3.4-.4.8-.4 1.3v2.6h-.8v-5h.6l.1 1 .7-.8c.3-.2.6-.2.9-.2zm3.6 5.1c-.7 0-1.3-.2-1.7-.6-.4-.5-.6-1.1-.6-2 0-.7.1-1.4.5-1.8a2 2 0 011.6-.7c.7 0 1.2.2 1.5.6.4.4.6 1 .6 1.6v.5h-3.5c0 .6.2 1 .5 1.3.3.3.7.5 1.2.5s1-.1 1.6-.4v.7a3.8 3.8 0 01-1.7.3zm-.2-4.5c-.4 0-.7.1-1 .4-.2.2-.3.6-.3 1h2.6c0-.4-.1-.8-.4-1-.2-.3-.5-.4-.9-.4zm6.4 4.4l-.1-.7c-.3.3-.5.6-.8.7l-1 .1c-.4 0-.8 0-1-.3-.4-.3-.5-.7-.5-1.1 0-1 .8-1.6 2.4-1.6h.9v-.4c0-.4-.1-.6-.3-.8-.2-.2-.4-.3-.8-.3s-.9.1-1.4.4l-.2-.6a3.6 3.6 0 011.6-.4c.6 0 1 .1 1.4.4.3.2.4.7.4 1.2v3.4h-.6zm-1.7-.5c.5 0 .9-.1 1.1-.4.3-.2.4-.6.4-1v-.5h-.7c-.6 0-1 .1-1.3.3-.3.2-.4.4-.4.8 0 .2 0 .5.2.6l.7.2zm5.5 0a2.7 2.7 0 00.7 0v.5h-.4l-.4.1c-1 0-1.5-.5-1.5-1.5v-3h-.7v-.3l.7-.3.3-1.1h.5v1.1h1.4v.6h-1.4v3c0 .3 0 .5.2.7l.6.2zm3.8.6c-.8 0-1.3-.2-1.8-.6-.4-.5-.6-1.1-.6-2 0-.7.2-1.4.6-1.8a2 2 0 011.6-.7c.6 0 1.1.2 1.5.6.3.4.5 1 .5 1.6v.5h-3.4c0 .6.1 1 .4 1.3.3.3.7.5 1.2.5s1-.1 1.6-.4v.7a3.8 3.8 0 01-1.6.3zm-.2-4.5c-.4 0-.8.1-1 .4-.2.2-.4.6-.4 1h2.6c0-.4-.1-.8-.3-1-.2-.3-.5-.4-1-.4zm8.8 4.4l-.1-.7-.8.7-1 .1c-.5 0-.8 0-1.1-.3-.3-.3-.4-.7-.4-1.1 0-1 .8-1.6 2.4-1.6h.8v-.4c0-.4 0-.6-.2-.8-.2-.2-.5-.3-.8-.3-.5 0-1 .1-1.4.4l-.3-.6a3.6 3.6 0 011.7-.4c.6 0 1 .1 1.3.4.3.2.5.7.5 1.2v3.4h-.6zm-1.7-.5c.5 0 .8-.1 1.1-.4.3-.2.4-.6.4-1v-.5h-.7c-.7 0-1 .1-1.4.3-.2.2-.3.4-.3.8 0 .2 0 .5.2.6l.7.2zm9.7.5v-3.2c0-.4-.1-.7-.3-.9-.2-.2-.5-.3-.9-.3-.5 0-.9.1-1.1.4-.3.3-.4.8-.4 1.4v2.6h-.7v-5h.6v.7h.1l.7-.5c.3-.2.6-.2 1-.2.5 0 1 .1 1.3.4.3.3.4.7.4 1.4v3.2h-.7zm4.4.1c-.7 0-1.3-.2-1.8-.6-.4-.5-.6-1.1-.6-2 0-.7.2-1.4.6-1.8a2 2 0 011.6-.7c.6 0 1.1.2 1.5.6.3.4.5 1 .5 1.6v.5h-3.4c0 .6.2 1 .4 1.3.3.3.7.5 1.2.5.6 0 1-.1 1.6-.4v.7a3.8 3.8 0 01-1.6.3zm-.2-4.5c-.4 0-.7.1-1 .4-.2.2-.3.6-.4 1h2.6c0-.4 0-.8-.3-1-.2-.3-.5-.4-1-.4zm7.4 4.4l-1-2.9-.2-1.2-.4 1.2-1 3h-.8l-1.4-5h.8a1844.7 1844.7 0 011 4.1 10.5 10.5 0 01.4-1.3l1-2.9h.8l.9 3 .3 1.2.1-.5 1-3.7h.8l-1.4 5h-.9zm6.7 0l-1.9-5h.8l1.1 3 .4 1.4.4-1 1.2-3.4h.8l-2 5h-.8zm4.3 0h-.7v-5h.7v5zm-.8-6.3c0-.2 0-.3.2-.4l.3-.1.3.1.1.4-.1.4-.3.1-.3-.1-.2-.4zm4.6 6.4c-.8 0-1.4-.2-1.8-.6-.4-.5-.6-1.1-.6-2 0-.7.2-1.4.6-1.8a2 2 0 011.6-.7c.6 0 1 .2 1.5.6.3.4.5 1 .5 1.6v.5h-3.4c0 .6.1 1 .4 1.3.3.3.7.5 1.2.5s1-.1 1.6-.4v.7a3.8 3.8 0 01-1.6.3zm-.2-4.5c-.4 0-.8.1-1 .4-.2.2-.4.6-.4 1h2.6c0-.4-.1-.8-.3-1-.2-.3-.5-.4-1-.4zm7.4 4.4l-1-2.9-.3-1.2-.3 1.2-1 3h-.8l-1.4-5h.8a1630.3 1630.3 0 011 4.1 10.5 10.5 0 01.4-1.3l1-2.9h.7l1 3 .3 1.2.1-.5 1-3.7h.7l-1.3 5h-1zm7.8-4.4h-1.2v4.4h-.8v-4.4h-.9v-.3l.9-.3v-.3c0-1.2.5-1.8 1.6-1.8.3 0 .6 0 1 .2l-.3.6-.7-.2c-.3 0-.5.1-.6.3-.2.2-.2.5-.2 1v.2h1.2v.6zm3.2-.6h.6v.7h-.6c-.4 0-.8.1-1 .4-.4.4-.5.8-.5 1.3v2.6h-.8v-5h.7v1l.8-.8c.2-.2.5-.2.8-.2zm5.9 2.5c0 .9-.2 1.5-.7 2-.4.4-1 .6-1.7.6-.4 0-.8 0-1.1-.3a2 2 0 01-.8-.9c-.2-.4-.3-.8-.3-1.4 0-.8.2-1.4.6-1.9.4-.4 1-.6 1.7-.6s1.2.2 1.6.7c.5.4.7 1 .7 1.8zm-3.8 0c0 .7 0 1.2.3 1.5.3.3.7.5 1.2.5s.8-.2 1-.5c.4-.3.5-.8.5-1.5 0-.6-.1-1-.4-1.4-.3-.3-.6-.5-1.1-.5-.5 0-1 .2-1.2.5-.2.3-.3.8-.3 1.4zm11.5 2.5v-3.2c0-.4-.1-.7-.3-.9-.2-.2-.4-.3-.8-.3-.5 0-.8.1-1 .4-.3.3-.4.7-.4 1.3v2.7h-.7v-3.2c0-.4-.1-.7-.3-.9-.1-.2-.4-.3-.8-.3-.5 0-.8.1-1 .4-.2.3-.3.8-.3 1.4v2.6h-.8v-5h.6l.1.7.7-.5c.2-.2.5-.2.8-.2.8 0 1.3.2 1.6.8.2-.3.4-.5.7-.6a2 2 0 011-.2c.5 0 1 .1 1.2.4.3.3.4.7.4 1.4v3.2h-.7zm8-1.3c0 .4-.2.8-.6 1-.3.3-.8.4-1.4.4-.7 0-1.2 0-1.6-.3v-.7a3.7 3.7 0 001.6.4c.4 0 .7 0 .9-.2.2-.1.3-.3.3-.6 0-.2 0-.3-.3-.5l-1-.4-1-.5-.4-.4-.1-.6c0-.4.2-.8.5-1 .3-.2.8-.3 1.3-.3.6 0 1.1 0 1.6.3l-.2.6-1.4-.3c-.4 0-.6 0-.8.2-.2 0-.3.2-.3.4l.1.4.3.2 1 .4c.5.2 1 .4 1.1.7.2.2.3.5.3.8zm3.2 1.4c-.8 0-1.3-.2-1.7-.6-.4-.5-.6-1.1-.6-2 0-.8.2-1.4.6-1.9.4-.4 1-.6 1.7-.6a3.4 3.4 0 011.3.2l-.2.7a3.3 3.3 0 00-1.1-.3c-1 0-1.5.7-1.5 2 0 .6 0 1 .3 1.4.3.3.7.5 1.1.5.5 0 .9-.1 1.3-.3v.7l-1.2.2zm4.7-5.1h.6l-.1.7h-.6c-.4 0-.7.1-1 .4-.3.4-.4.8-.4 1.3v2.6h-.8v-5h.6l.1 1c.2-.4.5-.6.7-.8.3-.2.6-.2.9-.2zm4.6 5l-.2-.7-.7.7-1 .1c-.5 0-.9 0-1.1-.3-.3-.3-.5-.7-.5-1.1 0-1 .9-1.6 2.5-1.6h.8v-.4c0-.4 0-.6-.2-.8-.2-.2-.5-.3-.8-.3-.5 0-1 .1-1.5.4l-.2-.6a3.6 3.6 0 011.7-.4c.6 0 1 .1 1.3.4.3.2.5.7.5 1.2v3.4h-.6zm-1.7-.5c.5 0 .8-.1 1-.4.4-.2.5-.6.5-1v-.5h-.8c-.6 0-1 .1-1.3.3-.2.2-.4.4-.4.8 0 .2.1.5.3.6l.7.2zm5.4 0a2.7 2.7 0 00.7 0v.5h-.4l-.4.1c-1 0-1.4-.5-1.4-1.5v-3h-.7v-.3l.7-.3.3-1.1h.4v1.1h1.5v.6h-1.5v3l.2.7.6.2zm3.7.6c-.7 0-1.3-.2-1.7-.6-.4-.5-.6-1.1-.6-2 0-.8.2-1.4.6-1.9.4-.4 1-.6 1.8-.6a3.4 3.4 0 011.2.2l-.2.7a3.3 3.3 0 00-1-.3c-1 0-1.6.7-1.6 2 0 .6.1 1 .4 1.4.2.3.6.5 1 .5.5 0 1-.1 1.4-.3v.7l-1.3.2zm5.9 0v-3.3c0-.4-.1-.7-.3-.9-.2-.2-.5-.3-.9-.3-.5 0-.9.1-1.1.4-.3.3-.4.8-.4 1.4v2.6h-.7v-7h.7v2.7l.7-.5a2 2 0 011-.2c.5 0 1 .1 1.3.4.3.3.4.8.4 1.4v3.2h-.7z" fill="#282F36" fill-opacity=".6"/><rect x="67" y="172.5" width="28.7" height="28.7" rx="2.9" fill="#68DADC"/><g clip-path="url(#clip9)"><path d="M86 181.8h-9.3a1 1 0 00-1 1v8c0 .6.4 1 1 1H86c.6 0 1.1-.4 1.1-1v-8c0-.5-.5-1-1-1zm-5.4 8.6h-3.5v-2.1h3.5v2.1zm0-3.6h-3.5v-2.1h3.5v2.1zm5 3.6h-3.5v-2.1h3.6v2.1zm0-3.6h-3.5v-2.1h3.6v2.1z" fill="#fff"/></g><path d="M113.5 184.2h-1.2V178h-2v-1h5.3v1h-2v6.2zm6.5 0l-.2-.8c-.3.4-.6.6-.9.7l-1 .2c-.5 0-1-.2-1.2-.5-.3-.2-.5-.6-.5-1.2 0-.5.2-1 .6-1.2.5-.3 1-.5 2-.5h.9v-.3c0-.4-.1-.6-.3-.8-.1-.2-.4-.3-.7-.3-.3 0-.6 0-.8.2a6 6 0 00-.8.3l-.3-.9a4.4 4.4 0 012-.5c.6 0 1.1.2 1.5.5.3.3.5.8.5 1.4v3.7h-.8zm-1.7-.8c.4 0 .7-.1 1-.4.2-.2.4-.5.4-1v-.4h-.7c-.6 0-1 .1-1.2.3-.3.2-.4.4-.4.7 0 .3 0 .5.2.6l.7.2zm6.9-4.7c.7 0 1.2.2 1.6.7.4.5.6 1.2.6 2 0 1-.2 1.6-.6 2.1a2 2 0 01-1.6.8c-.7 0-1.2-.3-1.6-.8l-.3.7h-.9v-7.7h1.2v1.9a13.5 13.5 0 010 1c.4-.5.9-.7 1.6-.7zm-.3.9c-.5 0-.8.1-1 .4-.2.3-.3.7-.3 1.4s0 1.2.3 1.5c.2.3.5.4 1 .4a1 1 0 001-.5c.2-.3.3-.7.3-1.4 0-1.2-.5-1.8-1.3-1.8zm5 4.6h-1.2v-7.7h1.1v7.7zm4 0c-.9 0-1.5-.2-2-.7-.5-.5-.7-1.1-.7-2 0-.9.2-1.6.6-2 .5-.6 1-.8 1.9-.8.7 0 1.2.2 1.7.6.4.4.6 1 .6 1.8v.6h-3.6c0 .6.1 1 .4 1.2.3.3.6.5 1.1.5a4.3 4.3 0 001.8-.4v1l-.8.2h-1zm-.2-4.7c-.4 0-.7.1-1 .4-.1.2-.3.5-.3 1h2.4c0-.5 0-.8-.3-1-.2-.3-.5-.4-.8-.4z" fill="#282F36" fill-opacity=".8"/><path d="M116.3 194.9c0 1-.3 1.9-.9 2.5-.6.6-1.4.9-2.6.9H111v-6.7h2c1 0 1.9.3 2.5.9.5.5.8 1.3.8 2.4zm-.8 0c0-.9-.2-1.5-.7-2-.4-.4-1-.6-1.9-.6h-1.1v5.3h1c.8 0 1.5-.2 2-.7.5-.4.7-1.1.7-2zm3 3.4h-.8v-5h.8v5zm-.9-6.4c0-.2 0-.3.2-.4h.6l.1.4-.1.4-.3.1-.3-.1-.2-.4zm5.7 5c0 .5-.2.8-.5 1-.4.3-.9.4-1.5.4-.7 0-1.2 0-1.6-.3v-.7a3.8 3.8 0 001.6.4c.4 0 .7 0 1-.2l.2-.5c0-.2 0-.4-.2-.5l-1-.5-1-.5-.4-.4-.2-.6c0-.4.2-.7.5-1 .4-.2.8-.3 1.4-.3.5 0 1 0 1.6.3l-.3.6-1.4-.3c-.3 0-.6 0-.8.2-.2 0-.2.2-.2.4v.4l.4.2c.1.1.4.3.9.4.6.2 1 .5 1.2.7.2.2.3.5.3.8zm3.5 1.4l-.9-.1c-.2-.2-.5-.3-.6-.6V200.5h-.8v-7.2h.6l.1.6a1.8 1.8 0 011.6-.7c.7 0 1.2.2 1.6.7.3.4.5 1 .5 1.9a3 3 0 01-.5 1.9c-.4.4-1 .6-1.6.6zm0-4.5c-.6 0-1 .2-1.2.4-.2.3-.3.8-.3 1.4v.2c0 .7 0 1.2.3 1.5.3.3.6.4 1.1.4.5 0 .8-.2 1-.5.3-.4.4-.8.4-1.5 0-.6-.1-1-.3-1.4-.3-.3-.6-.5-1-.5zm4.2 4.5h-.8v-7.1h.8v7zm4.7 0l-.2-.8c-.3.4-.5.6-.8.7l-.9.1c-.5 0-.9 0-1.2-.3-.2-.3-.4-.7-.4-1.1 0-1 .8-1.6 2.4-1.6h.9v-.3c0-.4 0-.7-.3-1l-.8-.2c-.4 0-.9.1-1.4.4l-.2-.6a3.6 3.6 0 011.7-.4c.6 0 1 .1 1.3.4.3.2.4.7.4 1.2v3.5h-.5zm-1.7-.6c.4 0 .8-.1 1-.4.3-.2.5-.6.5-1v-.5h-.8c-.6 0-1 .1-1.3.3-.3.2-.4.4-.4.8 0 .3.1.5.3.6.1.2.4.2.7.2zm3-4.4h.8l1.1 2.8.4 1.4.3-.8 1.3-3.4h.8l-2.2 5.6c-.2.6-.4 1-.7 1.2-.3.3-.6.4-1 .4a3 3 0 01-.7 0v-.7h.5c.5 0 1-.2 1.1-.8l.3-.7-2-5zm10 5c-.7 0-1.3-.2-1.7-.6-.4-.5-.7-1.1-.7-1.9 0-.8.2-1.4.6-2a2 2 0 011.6-.6c.7 0 1.2.2 1.5.6.4.4.6 1 .6 1.6v.5h-3.5c0 .6.2 1 .5 1.3.2.3.6.5 1.2.5l1.6-.3v.6a3.8 3.8 0 01-1.7.3zm-.2-4.5c-.4 0-.7.1-1 .4l-.4 1h2.7c0-.4-.2-.8-.4-1-.2-.3-.5-.4-.9-.4zm6.8 4.5V195c0-.4-.1-.7-.3-.9-.2-.2-.5-.3-.9-.3-.5 0-.9.2-1.1.4-.3.3-.4.8-.4 1.4v2.7h-.7v-5h.6l.1.6.7-.5c.3-.2.6-.2 1-.2.5 0 1 .1 1.3.4.3.3.4.8.4 1.4v3.3h-.7zm4-.6a2.7 2.7 0 00.6 0v.5l-.4.1h-.4c-1 0-1.5-.5-1.5-1.5v-3h-.7v-.3l.7-.3.4-1.1h.4v1.2h1.5v.5h-1.5v3c0 .3 0 .5.2.7l.6.2zm3.9-4.5h.6l-.1.7h-.6c-.4 0-.7.1-1 .5-.3.3-.5.7-.5 1.2v2.7h-.7v-5h.6l.1.9.7-.8.9-.2zm2.3 5h-.8v-5h.8v5zm-.9-6.3c0-.2 0-.3.2-.4h.6l.1.4-.1.4-.3.1-.3-.1-.2-.4zm4.6 6.4c-.8 0-1.3-.2-1.8-.6-.4-.5-.6-1.1-.6-1.9 0-.8.2-1.4.6-2a2 2 0 011.6-.6c.6 0 1.1.2 1.5.6.3.4.5 1 .5 1.6v.5H166c0 .6.1 1 .4 1.3.3.3.7.5 1.2.5l1.6-.3v.6a3.8 3.8 0 01-1.6.3zm-.2-4.5c-.4 0-.8.1-1 .4-.2.3-.4.6-.4 1h2.6c0-.4-.1-.8-.3-1-.2-.3-.5-.4-1-.4zm6.5 3c0 .6-.1 1-.5 1.2-.3.2-.8.3-1.5.3-.6 0-1.1 0-1.5-.3v-.7a3.8 3.8 0 001.6.4c.4 0 .7 0 .9-.2.2 0 .3-.3.3-.5s0-.4-.3-.5c-.1-.2-.5-.3-1-.5l-1-.5-.4-.4-.1-.6c0-.4.2-.7.5-1 .3-.2.8-.3 1.3-.3.6 0 1.1 0 1.6.3l-.2.6-1.4-.3c-.4 0-.6 0-.8.2-.2 0-.3.2-.3.4l.1.4.3.2 1 .4c.5.2 1 .5 1.1.7.2.2.3.5.3.8zm4.4 1.5h-.7v-5h.7v5zm-.8-6.4l.1-.4h.7l.1.4-.1.4-.3.1-.4-.1v-.4zm5.9 6.4V195c0-.4-.1-.7-.3-.9-.2-.2-.5-.3-.9-.3-.5 0-.9.2-1.1.4-.3.3-.4.8-.4 1.4v2.7h-.8v-5h.7v.6h.1l.7-.5a2 2 0 011-.2c.5 0 1 .1 1.3.4.3.3.4.8.4 1.4v3.3h-.7zm6.3-.6a2.7 2.7 0 00.7 0v.5l-.4.1h-.4c-1 0-1.4-.5-1.4-1.5v-3h-.8v-.3l.8-.3.3-1.1h.4v1.2h1.5v.5h-1.5v3c0 .3 0 .5.2.7l.6.2zm4.8.6l-.2-.8c-.3.4-.5.6-.8.7l-.9.1c-.5 0-.9 0-1.2-.3-.2-.3-.4-.7-.4-1.1 0-1 .8-1.6 2.4-1.6h.9v-.3c0-.4 0-.7-.3-1l-.8-.2c-.4 0-.9.1-1.4.4l-.2-.6a3.6 3.6 0 011.7-.4c.6 0 1 .1 1.3.4.3.2.4.7.4 1.2v3.5h-.5zm-1.7-.6c.4 0 .8-.1 1-.4.3-.2.5-.6.5-1v-.5h-.8c-.6 0-1 .1-1.3.3-.2.2-.4.4-.4.8 0 .3.1.5.3.6.1.2.4.2.7.2zm6.1-4.5c.7 0 1.2.2 1.5.7.4.4.6 1 .6 1.9a3 3 0 01-.6 1.9c-.3.4-.8.6-1.5.6l-.9-.1c-.2-.2-.5-.3-.6-.6h-.1l-.2.7h-.5v-7.1h.8v2.7c.3-.5.8-.7 1.5-.7zm0 .6c-.6 0-1 .2-1.2.5-.2.3-.3.8-.3 1.5s0 1.2.3 1.5c.2.3.6.4 1.1.4.5 0 .8-.2 1-.5.3-.3.4-.8.4-1.5 0-.6-.1-1-.3-1.4-.3-.3-.6-.5-1-.5zm4.2 4.5h-.8v-7.1h.8v7zm3.7 0c-.7 0-1.3-.2-1.8-.6-.4-.5-.6-1.1-.6-1.9 0-.8.2-1.4.6-2a2 2 0 011.6-.6c.6 0 1.1.2 1.5.6.3.4.5 1 .5 1.6v.5h-3.4c0 .6.2 1 .4 1.3.3.3.7.5 1.2.5.6 0 1-.1 1.6-.3v.6a3.8 3.8 0 01-1.6.3zm-.2-4.5c-.4 0-.7.1-1 .4l-.4 1h2.6c0-.4 0-.8-.3-1-.2-.3-.5-.4-1-.4z" fill="#282F36" fill-opacity=".6"/><rect x="67" y="217" width="28.7" height="28.7" rx="2.9" fill="#409AF8"/><g clip-path="url(#clip10)"><path d="M76.6 229.9h9.5c.2 0 .3.1.3.3v5.8c0 .6-.5 1-1 1h-8a1 1 0 01-1-1v-5.8c0-.2 0-.3.2-.3zm9.8-1v-.8c0-.6-.5-1-1-1h-1.2v-1.2c0-.2 0-.3-.2-.3h-1s-.2.1-.2.3v1.1H80V226c0-.2 0-.3-.2-.3h-1s-.2.1-.2.3v1.1h-1a1 1 0 00-1.2 1.1v.8c0 .2.2.3.3.3h9.5c.2 0 .3-.1.3-.3z" fill="#fff"/></g><path d="M114 222.4a2 2 0 00-1.5.7 3 3 0 00-.6 2c0 .9.2 1.6.6 2 .3.5.9.7 1.6.7l.9-.1.9-.2v1c-.6.2-1.2.3-2 .3-1 0-1.8-.3-2.4-1-.5-.6-.8-1.5-.8-2.7 0-.7.1-1.4.4-2 .3-.5.7-1 1.2-1.2.5-.3 1.1-.5 1.8-.5s1.4.2 2 .5l-.4 1c-.2-.2-.5-.3-.8-.3l-.8-.2zm6.7 6.3l-.3-.8c-.3.4-.5.6-.8.7l-1 .2c-.5 0-1-.2-1.3-.4-.3-.3-.4-.7-.4-1.3 0-.5.2-1 .6-1.2.4-.3 1-.5 2-.5h.9v-.3c0-.4-.1-.6-.3-.8-.2-.2-.4-.3-.7-.3-.3 0-.6 0-.8.2a6 6 0 00-.8.3l-.3-.9a4.4 4.4 0 012-.5c.6 0 1.1.2 1.5.5.3.3.5.8.5 1.4v3.7h-.8zm-1.7-.8c.4 0 .7-.1 1-.3.2-.3.3-.6.3-1v-.5h-.7c-.5 0-.9.1-1.1.3-.3.2-.4.4-.4.7 0 .3 0 .5.2.6l.7.2zm5.3.8H123V221h1.2v7.6zm4 0c-.9 0-1.5-.2-2-.6-.5-.5-.7-1.2-.7-2 0-1 .2-1.7.7-2.2.4-.5 1-.7 1.8-.7.7 0 1.3.2 1.7.6.4.5.6 1 .6 1.8v.6h-3.6c0 .6.1 1 .4 1.3.3.2.7.4 1.1.4a4.2 4.2 0 001.8-.4v1l-.8.2h-1zm-.2-4.7c-.4 0-.7.2-1 .4-.1.2-.3.6-.3 1h2.5c0-.4-.2-.8-.4-1-.2-.2-.5-.4-.8-.4zm8.4 4.7h-1.2v-3.3c0-.5 0-.8-.2-1-.2-.2-.5-.3-.8-.3-.5 0-.9.2-1.1.4-.2.3-.3.8-.3 1.5v2.7h-1.2v-5.4h1v.7h.1c.2-.3.4-.5.7-.6.3-.2.7-.2 1-.2 1.3 0 2 .6 2 2v3.5zm3.4 0c-.7 0-1.2-.2-1.6-.6-.3-.5-.5-1.2-.5-2.1 0-.9.2-1.6.5-2a2 2 0 011.6-.8c.8 0 1.3.2 1.7.8v-3h1.1v7.7h-.9l-.2-.7c-.4.5-1 .8-1.7.8zm.3-.8c.5 0 .8-.2 1-.4.3-.3.4-.7.4-1.3v-.2c0-.7-.1-1.2-.3-1.5-.3-.2-.6-.4-1-.4a1 1 0 00-1 .5c-.2.3-.3.8-.3 1.4 0 .6 0 1 .3 1.4.2.3.5.5 1 .5zm7.5.8l-.2-.8c-.3.4-.5.6-.8.7l-1 .2c-.6 0-1-.2-1.3-.4-.3-.3-.4-.7-.4-1.3 0-.5.2-1 .6-1.2.4-.3 1-.5 1.9-.5h1v-.3c0-.4-.2-.6-.3-.8-.2-.2-.4-.3-.8-.3-.2 0-.5 0-.8.2l-.7.3-.4-.9a4.4 4.4 0 012-.5c.7 0 1.2.2 1.5.5.4.3.6.8.6 1.4v3.7h-.9zm-1.7-.8c.4 0 .8-.1 1-.3.3-.3.4-.6.4-1v-.5h-.7c-.5 0-1 .1-1.2.3-.2.2-.3.4-.3.7 0 .3 0 .5.2.6l.6.2zm7-4.7h.5l-.1 1h-.5c-.5 0-.9.2-1.1.5-.3.3-.5.7-.5 1.2v2.8h-1.1v-5.4h.9l.1 1c.3-.4.5-.7.8-.8.3-.2.6-.3 1-.3z" fill="#282F36" fill-opacity=".8"/><path d="M115.2 238c0 .7-.2 1.2-.7 1.6-.4.4-1 .5-2 .5h-.7v2.7h-.8V236h1.7c1.7 0 2.5.7 2.5 2zm-3.4 1.5h.7c.7 0 1.2-.1 1.5-.3.3-.3.4-.6.4-1.1 0-.5-.1-.8-.4-1-.3-.2-.8-.3-1.4-.3h-.8v2.7zm5.4-1.7v3.2c0 .4.1.7.3 1l.9.2c.5 0 .9-.1 1.1-.4.3-.3.4-.8.4-1.4v-2.6h.7v5h-.6l-.1-.7-.7.6-1 .2c-.5 0-1-.2-1.3-.5-.3-.3-.4-.7-.4-1.4v-3.2h.7zm6.7 4.4a2.7 2.7 0 00.6 0v.5l-.3.1h-.5c-1 0-1.4-.4-1.4-1.5v-3h-.7v-.3l.7-.3.3-1h.5v1h1.4v.7h-1.4v2.9c0 .3 0 .5.2.7.1.2.3.2.6.2zm6.3-3.8H129v4.4h-.7v-4.4h-.9v-.4l.9-.3v-.2c0-1.3.5-1.9 1.6-1.9.3 0 .6 0 1 .2l-.3.6-.7-.1c-.3 0-.5 0-.6.2-.2.2-.3.5-.3 1v.3h1.3v.6zm5.2 1.9c0 .8-.2 1.4-.6 1.9-.4.4-1 .7-1.7.7-.4 0-.8-.1-1.2-.4a2 2 0 01-.8-.9c-.2-.3-.2-.8-.2-1.3 0-.8.2-1.5.6-2 .4-.4 1-.6 1.7-.6s1.2.2 1.6.7c.4.4.6 1 .6 1.9zm-3.8 0c0 .6.2 1 .4 1.4.3.4.6.5 1.1.5.5 0 1-.1 1.2-.5.2-.3.4-.8.4-1.4 0-.7-.2-1.1-.4-1.5-.3-.3-.7-.5-1.2-.5s-.8.2-1 .5c-.3.3-.5.8-.5 1.5zm7.4-2.6h.6v.7h-.6c-.4 0-.8.1-1 .5-.3.3-.5.7-.5 1.2v2.7h-.7v-5h.6v.9h.1l.7-.8.8-.2zm8 5v-3.2c0-.4-.1-.7-.3-.9-.2-.2-.4-.3-.8-.3-.5 0-.8.2-1 .4-.3.3-.4.7-.4 1.3v2.8h-.7v-3.3c0-.4-.1-.7-.3-.9-.2-.2-.4-.3-.8-.3-.5 0-.8.2-1 .5-.3.2-.4.7-.4 1.3v2.7h-.7v-5h.6l.1.7c.2-.3.4-.5.7-.6l.8-.2c.8 0 1.3.3 1.6.8l.6-.6a2 2 0 011-.2c.6 0 1 .1 1.3.4.3.3.4.8.4 1.4v3.3h-.8zm6.8.2c-.7 0-1.3-.3-1.7-.7-.5-.5-.7-1-.7-1.9 0-.8.2-1.4.6-2a2 2 0 011.6-.6c.6 0 1.1.2 1.5.6.4.4.5 1 .5 1.6v.5h-3.4c0 .6.2 1 .4 1.3.3.3.7.5 1.2.5.6 0 1.1-.1 1.6-.3v.6a3.8 3.8 0 01-1.6.4zm-.2-4.6c-.4 0-.7.1-1 .4l-.4 1h2.6c0-.4 0-.7-.3-1-.2-.3-.5-.4-.9-.4zm6.8 4.5v-3.3c0-.4-.1-.7-.3-.9-.2-.2-.5-.3-.9-.3-.5 0-.9.2-1.1.4-.3.3-.4.8-.4 1.4v2.7h-.8v-5h.6l.2.7c.2-.3.4-.5.7-.6l.9-.2c.6 0 1 .1 1.4.4.3.3.4.8.4 1.4v3.3h-.8zm3.9-.6a2.7 2.7 0 00.7 0v.5l-.4.1h-.4c-1 0-1.5-.4-1.5-1.5v-3h-.7v-.3l.7-.3.3-1h.5v1h1.4v.7h-1.4v2.9c0 .3 0 .5.2.7.1.2.3.2.6.2zm4-4.5h.5v.7h-.6c-.4 0-.8.1-1 .5-.3.3-.5.7-.5 1.2v2.7h-.7v-5h.6v.9h.1l.7-.8.8-.2zm2.2 5h-.7v-5h.7v5zm-.8-6.3l.1-.4h.7l.1.4-.1.4-.3.1-.4-.1v-.4zm4.5 6.5c-.7 0-1.3-.3-1.7-.7-.4-.5-.6-1-.6-1.9 0-.8.2-1.4.5-2a2 2 0 011.6-.6c.7 0 1.2.2 1.5.6.4.4.6 1 .6 1.6v.5h-3.5c0 .6.2 1 .5 1.3.3.3.7.5 1.2.5l1.6-.3v.6a3.8 3.8 0 01-1.7.4zm-.2-4.6c-.4 0-.7.1-1 .4-.2.3-.3.6-.3 1h2.6c0-.4-.1-.7-.3-1-.3-.3-.6-.4-1-.4zm6.6 3.1c0 .5-.2.8-.5 1-.4.3-.9.5-1.5.5s-1.2-.1-1.5-.4v-.7a3.8 3.8 0 001.5.4l1-.1.3-.6c0-.2-.1-.4-.3-.5l-1-.5-1-.5-.4-.4-.1-.6c0-.4.1-.7.5-1 .3-.2.7-.3 1.3-.3.6 0 1 0 1.6.3l-.3.6-1.3-.3c-.4 0-.7 0-.8.2-.2.1-.3.3-.3.5v.3l.4.3.9.3c.6.2 1 .5 1.2.7.2.2.3.5.3.8zm4.4 1.4h-.7v-5h.7v5zm-.8-6.4l.1-.4h.7v.8l-.4.1-.3-.1-.1-.4zm5.8 6.4v-3.3c0-.4 0-.7-.2-.9-.2-.2-.5-.3-1-.3-.4 0-.8.2-1 .4-.3.3-.4.8-.4 1.4v2.7h-.8v-5h.6l.2.7c.1-.3.4-.5.6-.6a2 2 0 011-.2c.6 0 1 .1 1.3.4.3.3.5.8.5 1.4v3.3h-.8zm4-.6a2.7 2.7 0 00.6 0v.5l-.3.1h-.4c-1 0-1.5-.4-1.5-1.5v-3h-.7v-.3l.7-.3.3-1h.5v1h1.4v.7h-1.4v2.9c0 .3 0 .5.2.7.1.2.3.2.6.2zm6-2c0 .9-.2 1.5-.7 2-.4.4-1 .7-1.7.7-.4 0-.8-.1-1.1-.4a2 2 0 01-.8-.9c-.2-.3-.3-.8-.3-1.3 0-.8.2-1.5.6-2 .4-.4 1-.6 1.7-.6s1.2.2 1.6.7c.5.4.7 1 .7 1.9zm-3.8 0c0 .7 0 1.2.3 1.5.3.4.7.5 1.2.5s.8-.1 1-.5c.3-.3.5-.8.5-1.4 0-.7-.2-1.1-.4-1.5-.3-.3-.6-.5-1.1-.5-.5 0-1 .2-1.2.5-.2.3-.3.8-.3 1.5zm12 2.7c-.8 0-1.3-.3-1.7-.7-.4-.5-.6-1-.6-1.9 0-.8.2-1.5.6-2 .4-.4 1-.6 1.7-.6a3.5 3.5 0 011.3.2l-.3.7a3.4 3.4 0 00-1-.2c-1 0-1.6.6-1.6 1.9 0 .6.2 1 .4 1.4.3.3.6.5 1.1.5.4 0 .9 0 1.3-.3v.7c-.3.2-.8.3-1.3.3zm5.5-.1l-.2-.7c-.3.3-.5.5-.8.6l-.9.2c-.5 0-.9-.2-1.2-.4-.2-.3-.4-.6-.4-1.1 0-1 .8-1.5 2.4-1.6h.9v-.3c0-.4-.1-.7-.3-.9-.1-.2-.4-.3-.8-.3s-.9.1-1.4.4l-.2-.6a3.6 3.6 0 011.7-.4c.6 0 1 .1 1.3.4.3.3.4.7.4 1.3v3.4h-.5zm-1.7-.6c.4 0 .8 0 1-.4.3-.2.5-.6.5-1v-.5h-.8c-.6 0-1 .2-1.3.3-.3.2-.4.4-.4.8 0 .3 0 .5.3.6.1.2.4.2.7.2zm4.5.6h-.7v-7.1h.7v7zm3.8 0c-.8 0-1.4-.2-1.8-.6-.4-.5-.6-1-.6-1.9 0-.8.2-1.4.6-2a2 2 0 011.6-.6c.6 0 1 .2 1.4.6.4.4.6 1 .6 1.6v.5h-3.4c0 .6.1 1 .4 1.3.3.3.7.5 1.2.5l1.6-.3v.6a3.8 3.8 0 01-1.6.4zm-.2-4.5c-.4 0-.8.1-1 .4-.2.3-.4.6-.4 1h2.6c0-.4-.1-.7-.3-1-.3-.3-.6-.4-1-.4zm6.7 4.5v-3.3c0-.4 0-.7-.3-.9-.2-.2-.4-.3-.8-.3-.6 0-1 .2-1.2.4-.2.3-.4.8-.4 1.4v2.7h-.7v-5h.6l.1.7c.2-.3.4-.5.7-.6l1-.2c.5 0 1 .1 1.3.4.3.3.5.8.5 1.4v3.3h-.8zm5.7-.7c-.4.5-.9.8-1.6.8-.6 0-1.2-.3-1.5-.7a3 3 0 01-.6-2c0-.7.2-1.4.6-1.8.4-.5.9-.7 1.5-.7.7 0 1.2.2 1.6.7v-2.7h.7v7h-.6v-.6zm-1.5.1c.5 0 .9-.1 1.1-.4.3-.3.4-.7.4-1.4v-.1c0-.7-.1-1.2-.4-1.5-.2-.3-.6-.5-1.1-.5-.4 0-.8.2-1 .5-.3.4-.4.9-.4 1.5s.1 1.1.4 1.4c.2.4.6.5 1 .5zm7 .6l-.2-.7-.8.6-1 .2c-.4 0-.8-.2-1.1-.4-.3-.3-.4-.6-.4-1.1 0-1 .8-1.5 2.4-1.6h.8v-.3c0-.4 0-.7-.2-.9-.2-.2-.5-.3-.8-.3-.4 0-1 .1-1.4.4l-.3-.6a3.6 3.6 0 011.7-.4c.6 0 1 .1 1.3.4.3.3.5.7.5 1.3v3.4h-.6zm-1.8-.6c.5 0 .8 0 1.1-.4.3-.2.4-.6.4-1v-.5h-.7c-.6 0-1 .2-1.3.3-.3.2-.4.4-.4.8 0 .3 0 .5.2.6.2.2.4.2.7.2zm6.1-4.5h.6v.7h-.6c-.4 0-.8.1-1 .5-.4.3-.5.7-.5 1.2v2.7h-.8v-5h.7v.9l.8-.8.8-.2zm6 5.2c-.8 0-1.3-.3-1.7-.7-.4-.5-.6-1-.6-1.9 0-.8.2-1.5.6-2 .4-.4 1-.6 1.7-.6a3.5 3.5 0 011.3.2l-.2.7a3.4 3.4 0 00-1.1-.2c-1 0-1.5.6-1.5 1.9 0 .6.1 1 .3 1.4.3.3.7.5 1.2.5.4 0 .8 0 1.2-.3v.7c-.3.2-.7.3-1.2.3zm4.5 0c-.7 0-1.3-.3-1.7-.7-.4-.5-.7-1-.7-1.9 0-.8.2-1.4.6-2a2 2 0 011.6-.6c.7 0 1.2.2 1.5.6.4.4.6 1 .6 1.6v.5h-3.5c0 .6.2 1 .5 1.3.3.3.6.5 1.2.5l1.6-.3v.6a3.8 3.8 0 01-1.7.4zm-.2-4.6c-.4 0-.7.1-1 .4l-.4 1h2.7c0-.4-.2-.7-.4-1-.2-.3-.5-.4-.9-.4zm4.1 4.5h-.7v-7.1h.7v7zm2.4 0h-.8v-7.1h.8v7zm4.8-1.4c0 .5-.2.8-.5 1-.4.3-.8.5-1.5.5-.6 0-1.2-.1-1.5-.4v-.7a3.8 3.8 0 001.5.4l1-.1.3-.6c0-.2-.1-.4-.3-.5-.1-.2-.5-.3-1-.5l-1-.5-.4-.4-.1-.6c0-.4.1-.7.5-1 .3-.2.7-.3 1.3-.3.6 0 1 0 1.6.3l-.3.6-1.3-.3c-.4 0-.7 0-.8.2-.2.1-.3.3-.3.5v.3c.2 0 .3.2.4.3l.9.3c.6.2 1 .5 1.2.7.2.2.3.5.3.8z" fill="#282F36" fill-opacity=".6"/><rect x="67" y="261.5" width="28.7" height="28.7" rx="2.9" fill="#ED6EBD"/><g clip-path="url(#clip11)"><path d="M82.3 270.8h4.3c.3 0 .5.3.5.6v3.6c0 .2-.2.5-.5.5h-4.3a.5.5 0 01-.6-.6v-3.5c0-.3.3-.6.6-.6zm-1.8 0h-4.3c-.3 0-.6.3-.6.6v3.6c0 .2.3.5.6.5h4.3c.3 0 .5-.3.5-.6v-3.5c0-.3-.2-.6-.5-.6zm-4.9 6v3.5c0 .3.3.6.6.6h4.3c.3 0 .5-.3.5-.6v-3.6c0-.3-.2-.5-.5-.5h-4.3c-.3 0-.6.2-.6.5zm6.7 4h4.3c.3 0 .5-.2.5-.5v-3.6c0-.3-.2-.5-.5-.5h-4.3c-.3 0-.6.2-.6.5v3.6c0 .3.3.6.6.6z" fill="#fff"/></g><path d="M114 269.3h2.6v3.6a7.6 7.6 0 01-2.5.4c-1.1 0-2-.3-2.5-1-.6-.6-1-1.5-1-2.7 0-1.1.4-2 1-2.7.7-.6 1.7-1 2.8-1 .8 0 1.5.2 2.1.5l-.4 1c-.5-.3-1.1-.5-1.7-.5-.8 0-1.4.3-1.8.8-.5.4-.7 1-.7 2 0 .8.2 1.5.6 2 .4.4 1 .6 1.7.6l1.3-.1v-1.9H114v-1zm7-1.6h.5v1.1h-.6c-.4 0-.8 0-1.1.4-.3.3-.4.7-.4 1.2v2.8h-1.2v-5.4h1v1h.1c.2-.4.4-.6.7-.8.3-.2.6-.3 1-.3zm2.7 5.5h-1.2v-5.4h1.2v5.4zm-1.2-6.9l.1-.4.5-.2c.2 0 .4 0 .5.2l.2.4c0 .2 0 .4-.2.5l-.5.2c-.2 0-.3 0-.5-.2a.6.6 0 01-.1-.5zm4.7 7c-.7 0-1.2-.2-1.6-.7-.4-.5-.6-1.2-.6-2.1 0-.9.2-1.6.6-2a2 2 0 011.6-.8c.7 0 1.3.2 1.6.8v-3h1.2v7.7h-1l-.1-.7c-.5.5-1 .8-1.7.8zm.3-1c.5 0 .8 0 1-.3.2-.3.4-.7.4-1.3v-.2c0-.7-.1-1.2-.4-1.4-.2-.3-.5-.5-1-.5a1 1 0 00-1 .5c-.2.3-.3.8-.3 1.4 0 .6.1 1 .3 1.4.3.3.6.5 1 .5z" fill="#282F36" fill-opacity=".8"/><path d="M116.3 283.9c0 1-.3 2-.9 2.5-.6.6-1.4.9-2.6.9H111v-6.7h2c1 0 1.9.3 2.5.9.5.6.8 1.4.8 2.4zm-.8 0c0-.9-.2-1.5-.7-2-.4-.4-1-.6-1.9-.6h-1.1v5.3h1c.8 0 1.5-.2 2-.7.5-.4.7-1 .7-2zm3 3.4h-.8v-5h.8v5zm-.9-6.4c0-.1 0-.3.2-.3 0-.1.1-.2.3-.2.1 0 .2 0 .3.2l.1.3-.1.4-.3.1h-.3l-.2-.5zm5.7 5c0 .5-.2.8-.5 1.1-.4.2-.9.4-1.5.4-.7 0-1.2-.1-1.6-.3v-.7a3.8 3.8 0 001.6.3l1-.1.2-.6c0-.2 0-.4-.2-.5l-1-.5-1-.5c-.2 0-.3-.2-.4-.4l-.2-.6c0-.4.2-.7.5-1 .4-.2.8-.3 1.4-.3l1.6.3-.3.6-1.4-.3c-.3 0-.6 0-.8.2-.2.1-.2.3-.2.5v.3l.4.3.9.3 1.2.7c.2.2.3.5.3.8zm3.5 1.5c-.3 0-.6 0-.9-.2-.2-.1-.5-.3-.6-.6v2.9h-.8v-7.2h.6l.1.7a1.8 1.8 0 011.6-.8c.7 0 1.2.2 1.6.7.3.4.5 1 .5 1.9a3 3 0 01-.5 1.9c-.4.4-1 .7-1.6.7zm0-4.6c-.6 0-1 .2-1.2.5-.2.2-.3.7-.3 1.3v.2c0 .7 0 1.2.3 1.5.3.3.6.4 1.1.4.5 0 .8-.1 1-.5.3-.3.4-.8.4-1.4 0-.7-.1-1.1-.3-1.5-.3-.3-.6-.5-1-.5zm4.2 4.5h-.8v-7.1h.8v7zm4.7 0l-.2-.7c-.3.3-.5.5-.8.6l-.9.2c-.5 0-.9-.2-1.2-.4-.2-.3-.4-.6-.4-1.1 0-1 .8-1.5 2.4-1.6h.9v-.3c0-.4 0-.7-.3-.9-.1-.2-.4-.3-.8-.3s-.9.2-1.4.4l-.2-.6a3.6 3.6 0 011.7-.4c.6 0 1 .1 1.3.4.3.3.4.7.4 1.3v3.4h-.5zm-1.7-.6c.4 0 .8 0 1-.3.3-.3.5-.7.5-1.1v-.5h-.8c-.6 0-1 .2-1.3.3-.3.2-.4.5-.4.8 0 .3.1.5.3.6.1.2.4.2.7.2zm3-4.4h.8l1.1 2.8.4 1.4.3-.7 1.3-3.5h.8l-2.2 5.7c-.2.5-.4 1-.7 1.2-.3.2-.6.3-1 .3a3 3 0 01-.7 0v-.7l.5.1c.5 0 1-.3 1.1-.9l.3-.7-2-5zm11.3 4.3c-.4.5-.9.8-1.6.8-.6 0-1.2-.3-1.5-.7a3 3 0 01-.6-1.9c0-.8.2-1.5.6-2 .4-.4.9-.6 1.5-.6.7 0 1.2.2 1.6.7v-2.7h.7v7h-.6v-.6zm-1.5.1c.5 0 .9-.1 1.1-.4.3-.3.4-.7.4-1.3v-.2c0-.7-.1-1.2-.4-1.5-.2-.3-.6-.5-1.1-.5-.4 0-.8.2-1 .6-.3.3-.4.8-.4 1.4 0 .6.1 1.1.4 1.5.2.3.6.4 1 .4zm7 .6l-.2-.7-.8.6-1 .2c-.4 0-.8-.2-1.1-.4-.3-.3-.4-.6-.4-1.1 0-1 .8-1.5 2.4-1.6h.8v-.3c0-.4 0-.7-.2-.9-.2-.2-.5-.3-.8-.3-.4 0-1 .2-1.4.4l-.3-.6a3.6 3.6 0 011.7-.4c.6 0 1 .1 1.3.4.3.3.5.7.5 1.3v3.4h-.6zm-1.8-.6c.5 0 .8 0 1.1-.3.3-.3.4-.7.4-1.1v-.5h-.7c-.6 0-1 .2-1.3.3-.3.2-.4.5-.4.8 0 .3 0 .5.2.6.2.2.4.2.7.2zm5.5 0a2.7 2.7 0 00.6 0v.5l-.3.1h-.5c-1 0-1.4-.4-1.4-1.5v-3h-.7v-.3l.7-.3.3-1h.5v1h1.4v.7h-1.4v3c0 .2 0 .4.2.6.1.2.3.2.6.2zm4.7.6l-.1-.7-.8.6-1 .2c-.4 0-.8-.2-1.1-.4-.3-.3-.4-.6-.4-1.1 0-1 .8-1.5 2.4-1.6h.8v-.3c0-.4 0-.7-.2-.9-.2-.2-.5-.3-.8-.3-.4 0-1 .2-1.4.4l-.3-.6a3.6 3.6 0 011.7-.4c.6 0 1 .1 1.3.4.3.3.5.7.5 1.3v3.4h-.6zm-1.7-.6c.5 0 .8 0 1.1-.3.3-.3.4-.7.4-1.1v-.5h-.7c-.6 0-1 .2-1.3.3-.3.2-.4.5-.4.8 0 .3 0 .5.2.6.2.2.4.2.7.2zm9.3.6l-.1-.7-.8.6-1 .2c-.4 0-.8-.2-1.1-.4-.3-.3-.4-.6-.4-1.1 0-1 .8-1.5 2.4-1.6h.9v-.3c0-.4-.1-.7-.3-.9-.2-.2-.4-.3-.8-.3s-.9.2-1.4.4l-.3-.6a3.6 3.6 0 011.7-.4c.6 0 1 .1 1.4.4.2.3.4.7.4 1.3v3.4h-.6zm-1.7-.6c.5 0 .9 0 1.1-.3.3-.3.4-.7.4-1.1v-.5h-.7c-.6 0-1 .2-1.3.3-.3.2-.4.5-.4.8 0 .3 0 .5.2.6.2.2.4.2.7.2zm7-.8c0 .5-.1.8-.4 1.1-.4.2-.9.4-1.5.4-.7 0-1.2-.1-1.6-.3v-.7a3.8 3.8 0 001.6.3l1-.1.2-.6c0-.2 0-.4-.2-.5l-1-.5-1-.5c-.2 0-.3-.2-.4-.4l-.2-.6c0-.4.2-.7.5-1 .4-.2.8-.3 1.4-.3l1.6.3-.3.6-1.4-.3c-.3 0-.6 0-.8.2-.2.1-.2.3-.2.5v.3l.4.3.9.3 1.2.7c.2.2.3.5.3.8zm5.7 1.5c-.7 0-1.3-.2-1.7-.7-.3-.4-.5-1-.5-1.9 0-.8.2-1.5.6-2 .4-.4 1-.6 1.7-.6a3.5 3.5 0 011.3.3l-.3.6a3.4 3.4 0 00-1-.2c-1 0-1.6.6-1.6 2 0 .5.2 1 .4 1.3.3.3.6.5 1.1.5.4 0 .9 0 1.3-.3v.7c-.3.2-.8.3-1.3.3zm5.6-.1l-.2-.7c-.3.3-.5.5-.8.6l-1 .2c-.4 0-.8-.2-1-.4-.4-.3-.5-.6-.5-1.1 0-1 .8-1.5 2.4-1.6h.9v-.3c0-.4-.1-.7-.3-.9-.1-.2-.4-.3-.8-.3s-.9.2-1.4.4l-.2-.6a3.6 3.6 0 011.7-.4c.6 0 1 .1 1.3.4.3.3.4.7.4 1.3v3.4h-.5zm-1.8-.6c.5 0 .9 0 1.2-.3.2-.3.4-.7.4-1.1v-.5h-.8c-.6 0-1 .2-1.3.3-.3.2-.4.5-.4.8 0 .3 0 .5.2.6.2.2.4.2.7.2zm6.2-4.5h.6l-.2.8-.5-.1c-.4 0-.7.1-1 .5-.3.3-.5.7-.5 1.2v2.7h-.7v-5h.6v1h.1c.2-.4.4-.7.7-.8.3-.2.5-.3.9-.3zm4.9 4.4c-.4.5-1 .8-1.6.8-.7 0-1.2-.3-1.5-.7a3 3 0 01-.6-1.9c0-.8.2-1.5.6-2 .3-.4.8-.6 1.5-.6s1.2.2 1.5.7h.1v-2.7h.7v7h-.6l-.1-.6zm-1.5.1c.5 0 .9-.1 1-.4.3-.3.4-.7.4-1.3v-.2c0-.7 0-1.2-.3-1.5-.2-.3-.6-.5-1.1-.5-.5 0-.8.2-1 .6-.3.3-.4.8-.4 1.4 0 .6.1 1.1.3 1.5.3.3.6.4 1 .4zm7-.8c0 .5-.1.8-.5 1.1-.3.2-.8.4-1.4.4-.7 0-1.2-.1-1.6-.3v-.7a3.8 3.8 0 001.6.3l.9-.1.3-.6c0-.2 0-.4-.3-.5-.1-.2-.4-.3-1-.5l-1-.5-.4-.4-.1-.6c0-.4.2-.7.5-1 .3-.2.8-.3 1.4-.3l1.5.3-.2.6-1.4-.3c-.4 0-.6 0-.8.2-.2.1-.3.3-.3.5l.1.3.3.3 1 .3c.5.3 1 .5 1.1.7.2.2.3.5.3.8z" fill="#282F36" fill-opacity=".6"/><rect x="67" y="306" width="28.7" height="28.7" rx="2.9" fill="#5ACAFA"/><g clip-path="url(#clip12)"><path d="M77.4 322.9H76a.4.4 0 00-.4.3v1.5a.4.4 0 00.4.3h1.4a.4.4 0 00.4-.3v-1.5a.4.4 0 00-.4-.3zm0-7.2H76a.4.4 0 00-.4.4v1.4a.4.4 0 00.4.3h1.4a.4.4 0 00.4-.3V316a.4.4 0 00-.4-.4zm0 3.6H76a.4.4 0 00-.4.3v1.5a.4.4 0 00.4.3h1.4a.4.4 0 00.4-.3v-1.5a.4.4 0 00-.4-.3zm9.4 4h-7.2a.4.4 0 00-.4.3v.7a.4.4 0 00.4.4h7.2a.4.4 0 00.3-.4v-.7a.4.4 0 00-.3-.4zm0-7.2h-7.2a.4.4 0 00-.4.3v.7a.4.4 0 00.4.4h7.2a.4.4 0 00.3-.4v-.7a.4.4 0 00-.3-.3zm0 3.5h-7.2a.4.4 0 00-.4.4v.7a.4.4 0 00.4.4h7.2a.4.4 0 00.3-.4v-.7a.4.4 0 00-.3-.4z" fill="#fff"/></g><path d="M111 317.7v-7.2h1.2v6.2h3v1H111zm6.5 0h-1.1v-5.4h1.1v5.4zm-1.2-6.8c0-.3 0-.4.2-.5l.4-.2c.2 0 .4 0 .5.2.1 0 .2.2.2.5 0 .1 0 .3-.2.4l-.5.2c-.2 0-.3 0-.4-.2a.6.6 0 01-.2-.4zm6.5 5.3c0 .5-.2 1-.6 1.2-.4.3-1 .4-1.6.4a4 4 0 01-1.8-.3v-1c.7.3 1.3.4 1.8.4.7 0 1-.2 1-.6v-.4l-.4-.2-.8-.4c-.6-.2-1-.5-1.3-.7-.2-.2-.3-.6-.3-1s.2-.8.6-1c.4-.3.9-.4 1.5-.4s1.3.1 1.8.4l-.4.8a4 4 0 00-1.4-.3c-.6 0-1 .2-1 .5 0 .2.1.3.3.4l1 .5 1 .5.5.5.1.7zm3.3.7l.8-.1v.8l-.5.2h-.6c-1 0-1.6-.6-1.6-1.7v-3h-.8v-.4l.8-.5.4-1.1h.7v1.2h1.6v.9h-1.6v2.9l.2.6.6.2zm3 .8h-1v-5.4h1v5.4zM128 311c0-.3.1-.4.2-.5l.5-.2c.2 0 .4 0 .5.2l.1.5-.1.4-.5.2c-.2 0-.4 0-.5-.2a.6.6 0 01-.2-.4zm7.7 6.8h-1.2v-3.3c0-.4 0-.8-.2-1-.2-.2-.4-.3-.8-.3-.5 0-.9.2-1 .5-.3.3-.4.7-.4 1.4v2.7h-1.2v-5.4h1v.7h.1c.2-.3.4-.5.7-.6l1-.2c1.3 0 2 .7 2 2v3.5zm6.2-5.4v.6l-1 .2.3.4v.5c0 .6-.1 1-.5 1.4-.4.3-1 .4-1.6.4h-.5c-.2.2-.4.3-.4.5s0 .3.2.3l.7.1h.9c.6 0 1 .2 1.4.4.3.3.4.6.4 1.1 0 .6-.2 1.1-.7 1.4a4 4 0 01-2.2.5 3 3 0 01-1.7-.4c-.4-.2-.6-.6-.6-1s.1-.7.3-1l.9-.4a.9.9 0 01-.4-.3.8.8 0 01-.1-.5l.1-.5.5-.4c-.2-.1-.5-.3-.6-.6-.2-.3-.3-.6-.3-1 0-.5.2-1 .6-1.3.3-.3.9-.5 1.5-.5a3.5 3.5 0 011 0h1.8zm-4.3 6.3c0 .2.1.4.4.5.2.2.5.2.9.2.6 0 1.1 0 1.4-.2.3-.2.5-.5.5-.7 0-.3-.1-.5-.3-.6a2 2 0 00-1-.1h-.8c-.3 0-.6 0-.8.2-.2.2-.3.4-.3.7zm.5-4.6c0 .4.1.6.3.8.2.2.4.3.7.3.7 0 1-.3 1-1 0-.4 0-.7-.2-.9-.2-.2-.4-.3-.8-.3-.3 0-.6.1-.7.3-.2.2-.3.5-.3.8zm7.8-3.5l-2.7 7.2h-1l2.6-7.2h1.1zm6.9 3.6c0 1.1-.3 2-1 2.7-.7.6-1.6 1-2.8 1h-2v-7.3h2.2c1.1 0 2 .4 2.6 1 .7.6 1 1.4 1 2.6zm-1.3 0c0-1.7-.8-2.6-2.4-2.6h-1v5.2h.9c1.7 0 2.5-.8 2.5-2.6zm3.9 3.6H154v-5.4h1.2v5.4zM154 311c0-.3 0-.4.2-.5l.5-.2c.2 0 .4 0 .5.2l.1.5-.1.4-.5.2c-.2 0-.4 0-.5-.2a.6.6 0 01-.2-.4zm5.7 1.3h.5v1.1h-.6c-.4 0-.8.1-1.1.4-.3.3-.4.7-.4 1.2v2.8h-1.2v-5.4h1v1h.1c.2-.4.4-.6.7-.8.3-.2.6-.3 1-.3zm4 5.6c-1 0-1.6-.2-2-.7-.5-.5-.8-1.2-.8-2 0-1 .2-1.6.7-2.1.4-.6 1-.8 1.8-.8.7 0 1.3.2 1.7.6.4.5.6 1 .6 1.8v.7h-3.6c0 .5.2.9.4 1.2.3.3.7.4 1.2.4a4.3 4.3 0 001.8-.4v1l-.9.2-1 .1zm-.3-4.7c-.4 0-.6 0-.9.3-.2.2-.3.6-.4 1h2.5c0-.4-.1-.8-.3-1-.2-.2-.5-.3-.9-.3zm5.8 4.7c-.8 0-1.4-.2-1.8-.7-.5-.5-.7-1.2-.7-2 0-1 .2-1.7.7-2.2.4-.5 1-.7 2-.7l1.5.3-.4 1c-.5-.3-.9-.3-1.2-.3-1 0-1.4.6-1.4 1.8 0 .6.1 1 .4 1.4.2.3.5.5 1 .5s1-.2 1.4-.4v1l-.6.2a4 4 0 01-.9.1zm4.8-1h.9v.8l-.5.2h-.6c-1.1 0-1.7-.6-1.7-1.7v-3h-.7v-.4l.8-.5.4-1.1h.7v1.2h1.5v.9h-1.5v2.9c0 .2 0 .5.2.6l.5.2zm6.8-1.8a3 3 0 01-.7 2c-.4.6-1 .8-1.9.8-.5 0-1-.1-1.3-.3l-1-1-.2-1.5c0-.9.2-1.6.6-2 .5-.6 1.1-.8 2-.8.7 0 1.3.2 1.8.8.5.5.7 1.1.7 2zm-4 0c0 1.2.5 1.9 1.4 1.9 1 0 1.4-.7 1.4-1.9s-.5-1.9-1.4-1.9c-.5 0-.8.2-1 .5-.3.3-.4.8-.4 1.4zm8-2.8h.6v1.1h-.6c-.4 0-.8.1-1.1.4-.3.3-.4.7-.4 1.2v2.8H182v-5.4h1v1h.1c.2-.4.4-.6.7-.8.3-.2.6-.3 1-.3zm.8 0h1.3l1 3.2c.3.4.4.8.4 1.2l.2-.6 1.3-3.7h1.2l-2.3 6.1c-.4 1.2-1.1 1.7-2.1 1.7h-.8v-1l.6.1c.6 0 1-.3 1.2-1l.2-.5-2.2-5.4z" fill="#282F36" fill-opacity=".8"/><path d="M116.3 328.4c0 1.1-.3 2-.9 2.5-.6.6-1.4.9-2.6.9H111v-6.7h2c1 0 1.9.3 2.5.9.5.6.8 1.4.8 2.4zm-.8 0c0-.8-.2-1.5-.7-2-.4-.4-1-.6-1.9-.6h-1.1v5.3h1c.8 0 1.5-.2 2-.7.5-.4.7-1 .7-2zm3 3.4h-.8v-5h.8v5zm-.9-6.4c0-.1 0-.3.2-.3 0-.1.1-.2.3-.2.1 0 .2 0 .3.2l.1.3-.1.4-.3.2c-.2 0-.3 0-.3-.2l-.2-.4zm5.7 5c0 .5-.2.9-.5 1.1-.4.3-.9.4-1.5.4-.7 0-1.2-.1-1.6-.3v-.7a3.7 3.7 0 001.6.4l1-.2.2-.6c0-.2 0-.4-.2-.5l-1-.5-1-.4-.4-.5-.2-.6c0-.4.2-.7.5-1 .4-.2.8-.3 1.4-.3l1.6.3-.3.7c-.5-.3-1-.4-1.4-.4l-.8.2c-.2.1-.2.3-.2.5v.3l.4.3.9.4 1.2.6c.2.2.3.5.3.8zm3.5 1.5c-.3 0-.6 0-.9-.2l-.6-.5v2.8h-.8v-7.2h.6l.1.7a1.8 1.8 0 011.6-.8c.7 0 1.2.2 1.6.7.3.4.5 1 .5 1.9a3 3 0 01-.5 2c-.4.4-1 .6-1.6.6zm0-4.5c-.6 0-1 0-1.2.4-.2.3-.3.7-.3 1.3v.2c0 .7 0 1.2.3 1.5.3.3.6.5 1.1.5.5 0 .8-.2 1-.6.3-.3.4-.8.4-1.4 0-.6-.1-1.1-.3-1.4-.3-.4-.6-.5-1-.5zm4.2 4.4h-.8v-7.1h.8v7.1zm4.7 0l-.2-.7c-.3.3-.5.5-.8.6l-.9.2c-.5 0-.9-.1-1.2-.4-.2-.3-.4-.6-.4-1 0-1 .8-1.6 2.4-1.7h.9v-.3c0-.4 0-.7-.3-.9-.1-.2-.4-.3-.8-.3s-.9.2-1.4.4l-.2-.6a3.5 3.5 0 011.7-.4c.6 0 1 .2 1.3.4.3.3.4.7.4 1.3v3.4h-.5zm-1.7-.5c.4 0 .8-.2 1-.4.3-.3.5-.6.5-1.1v-.5h-.8c-.6 0-1 .2-1.3.4-.3.1-.4.4-.4.7 0 .3.1.5.3.6.1.2.4.3.7.3zm3-4.5h.8l1.1 2.8.4 1.5.3-.8 1.3-3.5h.8l-2.2 5.7c-.2.6-.4 1-.7 1.2-.3.2-.6.3-1 .3a3 3 0 01-.7 0v-.6h.5c.5 0 1-.3 1.1-.9l.3-.7-2-5zm11.3 4.3c-.4.5-.9.8-1.6.8-.6 0-1.2-.2-1.5-.7a3 3 0 01-.6-1.9c0-.8.2-1.5.6-2 .4-.4.9-.6 1.5-.6.7 0 1.2.3 1.6.7v-2.7h.7v7.1h-.6v-.7zm-1.5.2c.5 0 .9-.2 1.1-.5.3-.2.4-.7.4-1.3v-.2c0-.7-.1-1.2-.4-1.5-.2-.3-.6-.5-1.1-.5-.4 0-.8.2-1 .6-.3.3-.4.8-.4 1.4 0 .7.1 1.1.4 1.5.2.3.6.5 1 .5zm7 .5l-.2-.7-.8.6-1 .2c-.4 0-.8-.1-1.1-.4-.3-.3-.4-.6-.4-1 0-1 .8-1.6 2.4-1.7h.8v-.3c0-.4 0-.7-.2-.9-.2-.2-.5-.3-.8-.3-.4 0-1 .2-1.4.4l-.3-.6a3.6 3.6 0 011.7-.4c.6 0 1 .2 1.3.4.3.3.5.7.5 1.3v3.4h-.6zm-1.8-.5c.5 0 .8-.2 1.1-.4.3-.3.4-.6.4-1.1v-.5h-.7c-.6 0-1 .2-1.3.4-.3.1-.4.4-.4.7 0 .3 0 .5.2.6.2.2.4.3.7.3zm5.5 0a2.7 2.7 0 00.6-.1v.6h-.8c-1 0-1.4-.4-1.4-1.4v-3h-.7v-.4l.7-.3.3-1h.5v1.1h1.4v.6h-1.4v3c0 .2 0 .5.2.6.1.2.3.3.6.3zm4.7.5l-.1-.7-.8.6-1 .2c-.4 0-.8-.1-1.1-.4-.3-.3-.4-.6-.4-1 0-1 .8-1.6 2.4-1.7h.8v-.3c0-.4 0-.7-.2-.9-.2-.2-.5-.3-.8-.3-.4 0-1 .2-1.4.4l-.3-.6a3.6 3.6 0 011.7-.4c.6 0 1 .2 1.3.4.3.3.5.7.5 1.3v3.4h-.6zm-1.7-.5c.5 0 .8-.2 1.1-.4.3-.3.4-.6.4-1.1v-.5h-.7c-.6 0-1 .2-1.3.4-.3.1-.4.4-.4.7 0 .3 0 .5.2.6.2.2.4.3.7.3zm9.3.5l-.1-.7-.8.6-1 .2c-.4 0-.8-.1-1.1-.4-.3-.3-.4-.6-.4-1 0-1 .8-1.6 2.4-1.7h.9v-.3c0-.4-.1-.7-.3-.9-.2-.2-.4-.3-.8-.3s-.9.2-1.4.4l-.3-.6a3.6 3.6 0 011.7-.4c.6 0 1 .2 1.4.4.2.3.4.7.4 1.3v3.4h-.6zm-1.7-.5c.5 0 .9-.2 1.1-.4.3-.3.4-.6.4-1.1v-.5h-.7c-.6 0-1 .2-1.3.4-.3.1-.4.4-.4.7 0 .3 0 .5.2.6.2.2.4.3.7.3zm7-.9c0 .5-.1.9-.4 1.1-.4.3-.9.4-1.5.4-.7 0-1.2-.1-1.6-.3v-.7a3.7 3.7 0 001.6.4l1-.2.2-.6c0-.2 0-.4-.2-.5l-1-.5-1-.4-.4-.5-.2-.6c0-.4.2-.7.5-1 .4-.2.8-.3 1.4-.3l1.6.3-.3.7c-.5-.3-1-.4-1.4-.4l-.8.2c-.2.1-.2.3-.2.5v.3l.4.3.9.4 1.2.6c.2.2.3.5.3.8zm6.8 1.4l-.1-.7-.8.6-1 .2c-.4 0-.8-.1-1.1-.4-.3-.3-.4-.6-.4-1 0-1 .8-1.6 2.4-1.7h.8v-.3c0-.4 0-.7-.2-.9-.2-.2-.5-.3-.8-.3-.4 0-1 .2-1.4.4l-.3-.6a3.5 3.5 0 011.7-.4c.6 0 1 .2 1.3.4.3.3.5.7.5 1.3v3.4h-.6zm-1.7-.5c.5 0 .8-.2 1.1-.4.3-.3.4-.6.4-1.1v-.5h-.7c-.6 0-1 .2-1.3.4-.3.1-.4.4-.4.7 0 .3 0 .5.2.6.2.2.4.3.7.3zm8.3.6c-.8 0-1.3-.2-1.7-.7-.4-.4-.6-1-.6-1.9 0-.8.2-1.5.6-2 .4-.4 1-.6 1.7-.6a3.4 3.4 0 011.3.3l-.2.6a3.3 3.3 0 00-1.1-.2c-1 0-1.5.6-1.5 2 0 .5 0 1 .3 1.3.3.4.6.5 1.1.5.4 0 .9 0 1.3-.2v.6c-.3.2-.7.3-1.3.3zm6.7-2.6c0 .8-.2 1.4-.6 1.9-.4.5-1 .7-1.7.7l-1.2-.3a2 2 0 01-.8-1c-.2-.3-.3-.8-.3-1.3 0-.8.2-1.5.6-2 .4-.4 1-.6 1.7-.6s1.3.2 1.7.7c.4.5.6 1.1.6 1.9zm-3.8 0c0 .6.1 1.1.4 1.5.2.3.6.5 1.1.5.5 0 .9-.2 1.1-.5.3-.4.4-.9.4-1.5s-.1-1.1-.4-1.5c-.2-.3-.6-.4-1-.4-.6 0-1 .1-1.2.4-.3.4-.4.8-.4 1.5zm5.9 2.5h-.8v-7.1h.8v7.1zm2.4 0h-.8v-7.1h.8v7.1zm3.7 0c-.8 0-1.3-.1-1.8-.6-.4-.4-.6-1-.6-1.9 0-.8.2-1.4.6-1.9a2 2 0 011.6-.7c.6 0 1.1.2 1.5.6.3.4.5 1 .5 1.7v.4h-3.4c0 .6.1 1 .4 1.4.3.3.7.4 1.2.4s1 0 1.6-.3v.7a3.8 3.8 0 01-1.6.3zm-.2-4.5c-.4 0-.8.2-1 .4-.2.3-.4.7-.4 1.1h2.6c0-.5-.1-.8-.3-1-.2-.3-.5-.5-1-.5zm5.3 4.6c-.7 0-1.3-.2-1.7-.7-.4-.4-.6-1-.6-1.9 0-.8.2-1.5.6-2 .4-.4 1-.6 1.8-.6a3.4 3.4 0 011.2.3l-.2.6a3.3 3.3 0 00-1-.2c-1 0-1.6.6-1.6 2 0 .5.1 1 .4 1.3.2.4.6.5 1 .5.5 0 1 0 1.4-.2v.6c-.4.2-.8.3-1.3.3zm4-.6a2.7 2.7 0 00.8-.1v.6h-.8c-1 0-1.5-.4-1.5-1.4v-3h-.7v-.4l.7-.3.3-1h.5v1.1h1.4v.6h-1.4v3c0 .2 0 .5.2.6.1.2.3.3.6.3zm2.5.5h-.7v-5h.7v5zm-.8-6.4l.1-.3.3-.2c.2 0 .3 0 .4.2v.7l-.4.2s-.2 0-.3-.2l-.1-.4zm6.7 3.9c0 .8-.2 1.4-.6 1.9-.4.5-1 .7-1.7.7l-1.2-.3a2 2 0 01-.8-1c-.2-.3-.3-.8-.3-1.3 0-.8.2-1.5.6-2 .5-.4 1-.6 1.7-.6s1.3.2 1.7.7c.4.5.6 1.1.6 1.9zm-3.8 0c0 .6.1 1.1.4 1.5.3.3.6.5 1.1.5.5 0 .9-.2 1.2-.5.2-.4.3-.9.3-1.5s0-1.1-.3-1.5c-.3-.3-.7-.4-1.2-.4s-.8.1-1.1.4c-.3.4-.4.8-.4 1.5zm8.6 2.5v-3.2c0-.4-.1-.7-.3-1l-.9-.2c-.5 0-.9 0-1.1.4-.3.3-.4.7-.4 1.4v2.6h-.7v-5h.6v.7h.1c.2-.3.4-.5.7-.6a2 2 0 011-.2c.5 0 1 .2 1.3.4.3.3.4.8.4 1.4v3.3h-.7z" fill="#282F36" fill-opacity=".6"/><rect x="67" y="350.5" width="28.7" height="28.7" rx="2.9" fill="#805EF6"/><g clip-path="url(#clip13)"><path d="M85.2 368.1v.4c0 .5-.4 1-1 1h-7.6a1 1 0 01-1-1v-5.1c0-.6.5-1 1-1h.3v4.1c0 1 .7 1.6 1.6 1.6h6.7zm2-1.6v-5c0-.6-.5-1-1-1h-7.7a1 1 0 00-1 1v5c0 .6.5 1 1 1h7.7c.5 0 1-.4 1-1zm-6.5-4.1a1 1 0 11-1.9 0 1 1 0 012 0zm-1.9 2.9l1.1-1.1c.1-.1.3-.1.4 0l.7.8 2.7-2.8h.4l1.7 1.8v2.2h-7v-1z" fill="#fff"/></g><path d="M111.8 358.3h2.7v3.6a7.5 7.5 0 01-2.6.4c-1 0-1.9-.3-2.5-1-.6-.6-.9-1.5-.9-2.7 0-1.1.4-2 1-2.7.7-.6 1.6-1 2.8-1 .7 0 1.4.2 2 .5l-.3 1c-.6-.3-1.2-.4-1.8-.4-.7 0-1.3.2-1.8.7-.4.5-.6 1.1-.6 2 0 .8.2 1.5.5 2 .5.4 1 .6 1.8.6l1.2-.1v-1.9h-1.5v-1zm7.7 4l-.3-.8-.8.7-1 .1c-.6 0-1-.1-1.3-.4-.3-.3-.4-.7-.4-1.2 0-.6.2-1 .6-1.3.4-.3 1-.4 1.9-.5h1v-.3c0-.3-.1-.6-.3-.8l-.8-.2-.8.1-.7.3-.4-.8a4.3 4.3 0 012-.5c.7 0 1.2.2 1.5.5.4.3.6.7.6 1.4v3.6h-.8zm-1.8-.9c.5 0 .8 0 1-.3.3-.2.4-.6.4-1v-.5h-.7c-.5 0-1 .2-1.2.3-.2.2-.3.5-.3.8 0 .2 0 .4.2.6l.6.1zm5.3.8H122v-7.6h1.1v7.6zm2.8 0h-1.1v-7.6h1.1v7.6zm4 .1c-.8 0-1.4-.2-2-.7-.4-.5-.6-1.2-.6-2 0-1 .2-1.6.6-2.1.5-.5 1-.8 1.9-.8.7 0 1.2.2 1.7.7.4.4.6 1 .6 1.8v.6h-3.6c0 .5.1 1 .4 1.2.3.3.6.4 1.1.4a4.3 4.3 0 001.8-.4v1l-.8.2-1 .1zm-.1-4.7c-.4 0-.7 0-1 .3-.1.3-.3.6-.3 1h2.4c0-.4 0-.7-.3-1-.2-.2-.5-.3-.8-.3zm6.3-.9h.6v1.1h-.6c-.5 0-.8.1-1.1.4-.3.3-.5.7-.5 1.2v2.8h-1.1v-5.4h.9l.2 1c.2-.4.4-.6.7-.8.3-.2.6-.3 1-.3zm.8.1h1.3l1 3 .4 1.3.2-.6 1.3-3.7h1.2l-2.3 6.2c-.4 1-1.1 1.6-2.1 1.6h-.8v-1l.6.1c.6 0 1-.3 1.2-1l.2-.5-2.2-5.4z" fill="#282F36" fill-opacity=".8"/><path d="M114.2 373c0 1-.3 1.9-1 2.4-.5.6-1.4 1-2.5 1h-1.9v-6.8h2c1.1 0 2 .3 2.5 1 .6.5.9 1.3.9 2.3zm-.9 0c0-1-.2-1.6-.6-2-.4-.5-1-.7-2-.7h-1v5.3h.9c.9 0 1.6-.2 2-.6.5-.5.7-1.2.7-2zm3 3.3h-.8v-5h.8v5zm-.8-6.3l.1-.4.3-.1h.3l.2.5c0 .1 0 .3-.2.3l-.3.2c-.1 0-.2 0-.3-.2l-.1-.3zm5.6 5c0 .4-.1.8-.5 1-.3.3-.8.4-1.5.4-.6 0-1.1-.1-1.5-.3v-.7a3.7 3.7 0 001.6.4c.4 0 .7 0 .9-.2.2-.1.3-.3.3-.6 0-.2 0-.4-.3-.5l-1-.5-1-.4-.4-.5-.1-.6c0-.4.1-.7.5-1 .3-.2.8-.3 1.3-.3.6 0 1.1.1 1.6.4l-.3.6-1.3-.3-.8.1c-.2.1-.3.3-.3.5l.1.3.3.3 1 .4 1.1.6c.2.2.3.5.3.8zm3.6 1.4c-.3 0-.6 0-1-.2l-.6-.5v2.8h-.7v-7.2h.6v.7h.1a1.7 1.7 0 011.6-.8c.6 0 1.2.2 1.5.7.4.5.6 1 .6 2a3 3 0 01-.6 1.8c-.4.5-.9.7-1.5.7zm-.1-4.5c-.5 0-1 .1-1.1.4-.3.3-.4.7-.4 1.3v.2c0 .7.1 1.2.4 1.5.2.3.6.5 1 .5.5 0 .9-.2 1.1-.6.3-.3.4-.8.4-1.4 0-.6-.2-1.1-.4-1.4-.2-.4-.6-.5-1-.5zm4.2 4.4h-.7v-7h.7v7zm4.7 0l-.1-.7-.8.6-1 .2c-.4 0-.8-.1-1.1-.4-.3-.2-.4-.6-.4-1 0-1 .8-1.6 2.4-1.7h.8v-.3c0-.4 0-.7-.2-.9-.2-.2-.5-.2-.8-.2-.4 0-1 0-1.4.3l-.3-.5a3.6 3.6 0 011.7-.5c.6 0 1 .2 1.3.4.3.3.5.7.5 1.3v3.4h-.6zm-1.7-.5c.5 0 .8-.2 1.1-.4.3-.3.4-.6.4-1.1v-.4h-.7c-.6 0-1 .1-1.3.3-.3.1-.4.4-.4.7 0 .3 0 .5.2.7l.7.2zm3-4.5h.9l1 2.9.5 1.4.3-.8 1.2-3.5h.8l-2.1 5.7c-.2.6-.5 1-.8 1.2-.2.2-.6.4-1 .4a3 3 0 01-.7-.1v-.6h.6c.5 0 .9-.3 1-.9l.4-.7-2-5zm7.2 0h.8l1 2.9c.3.6.5 1 .5 1.4l.3-.8 1.2-3.5h.9l-2.2 5.7c-.2.6-.4 1-.7 1.2-.3.2-.7.4-1 .4a3 3 0 01-.8-.1v-.6h.6c.5 0 .9-.3 1.1-.9l.3-.7-2-5zm9.8 2.5c0 .8-.2 1.5-.6 2-.4.4-1 .6-1.7.6a2 2 0 01-2-1.2c-.2-.4-.3-.9-.3-1.4 0-.8.2-1.4.6-1.9.4-.4 1-.7 1.7-.7s1.3.3 1.7.7c.4.5.6 1.1.6 2zm-3.8 0c0 .6.1 1.1.4 1.5.2.3.6.5 1 .5.6 0 1-.2 1.2-.5.3-.4.4-.9.4-1.5s-.1-1.1-.4-1.4c-.2-.4-.6-.5-1.1-.5-.5 0-.9.1-1.1.5-.3.3-.4.8-.4 1.4zm5.8-2.5v3.3c0 .4.1.7.3.9.2.2.5.3.9.3.5 0 .9-.2 1.1-.5.3-.2.4-.7.4-1.4v-2.6h.7v5h-.6l-.1-.7c-.2.3-.4.5-.7.6l-1 .2c-.5 0-1-.1-1.3-.4-.3-.3-.4-.8-.4-1.4v-3.3h.7zm7.3 0h.6v.7h-.6c-.4 0-.8 0-1 .4-.4.3-.5.7-.5 1.2v2.7h-.8v-5h.7v1l.8-.8c.2-.2.5-.3.8-.3zm4.7 5h-.7v-5h.7v5zm-.8-6.3l.1-.4.4-.1h.3l.1.5-.1.3-.3.2c-.2 0-.3 0-.4-.2v-.3zm8.8 6.3v-3.2c0-.4 0-.7-.2-1l-.8-.2c-.5 0-.9.1-1 .4-.3.2-.4.7-.4 1.2v2.8h-.8v-3.2c0-.4 0-.7-.2-1l-.8-.2c-.5 0-.9.1-1 .4-.3.3-.4.7-.4 1.4v2.6h-.8v-5h.7v.7h.1l.6-.6.9-.2c.8 0 1.3.3 1.5.9l.7-.7a2 2 0 011-.2c.5 0 1 .2 1.2.5.3.2.5.7.5 1.4v3.2h-.8zm5.4 0l-.2-.7-.7.6-1 .2c-.5 0-.8-.1-1.1-.4-.3-.2-.4-.6-.4-1 0-1 .8-1.6 2.4-1.7h.8v-.3c0-.4 0-.7-.2-.9-.2-.2-.5-.2-.8-.2-.5 0-1 0-1.5.3l-.2-.5a3.5 3.5 0 011.7-.5c.6 0 1 .2 1.3.4.3.3.5.7.5 1.3v3.4h-.6zm-1.7-.5c.5 0 .8-.2 1.1-.4.3-.3.4-.6.4-1.1v-.4h-.8c-.6 0-1 .1-1.3.3-.2.1-.4.4-.4.7 0 .3.1.5.3.7l.7.2zm8-4.5v.5l-1 .1a1.6 1.6 0 01.3 1c0 .5-.2.9-.5 1.2a2 2 0 01-1.4.4h-.4c-.3.1-.5.4-.5.6 0 .2 0 .3.2.3l.6.1h.9c.5 0 1 .1 1.2.4.3.2.4.5.4 1s-.2 1-.6 1.2c-.5.3-1.1.5-2 .5-.6 0-1.1-.2-1.5-.4-.3-.3-.5-.6-.5-1 0-.3 0-.6.3-.8.2-.3.5-.4.8-.5a.8.8 0 01-.3-.3l-.1-.4.1-.5.5-.4c-.3 0-.5-.2-.7-.5l-.2-.9c0-.5.2-1 .5-1.2a2 2 0 011.4-.5l.7.1h1.7zm-4 5.8c0 .3 0 .5.3.7l1 .2c.6 0 1-.1 1.4-.3.3-.2.4-.5.4-.8 0-.3 0-.4-.2-.6l-1-.1h-.9c-.3 0-.6 0-.8.2-.2.2-.3.4-.3.7zm.3-4.2c0 .4.1.6.3.8.2.2.5.3.9.3.7 0 1-.4 1-1.1 0-.8-.3-1.1-1-1.1-.4 0-.7 0-.9.3-.2.2-.3.4-.3.8zm6.7 3.5c-.7 0-1.3-.2-1.7-.7-.4-.4-.6-1-.6-1.8 0-.9.2-1.5.5-2a2 2 0 011.6-.7c.7 0 1.2.2 1.5.6.4.5.6 1 .6 1.7v.4h-3.5c0 .6.2 1 .5 1.4.3.3.7.4 1.2.4s1 0 1.6-.3v.7a4 4 0 01-1.7.3zm-.2-4.5c-.4 0-.7 0-1 .3-.2.3-.3.7-.3 1.1h2.6c0-.4-.1-.8-.3-1-.3-.3-.6-.4-1-.4zm6.6 3c0 .5-.2.9-.5 1.1-.4.3-.9.4-1.5.4s-1.2-.1-1.5-.3v-.7a3.7 3.7 0 001.5.4c.4 0 .7 0 1-.2.2-.1.3-.3.3-.6 0-.2-.1-.4-.3-.5l-1-.5-1-.4-.4-.5-.1-.6c0-.4.1-.7.5-1 .3-.2.7-.3 1.3-.3.6 0 1 .1 1.6.4l-.3.6-1.3-.3-.8.1c-.2.1-.3.3-.3.5v.3l.4.3.9.4 1.2.6c.2.2.3.5.3.8zm7.7 1.4l-.9-3-.3-1.1-.4 1.2-.9 3h-.9l-1.3-5h.8a1589.3 1589.3 0 011 4.1 10 10 0 01.4-1.3l.9-2.9h.8l.9 2.9.3 1.3.2-.5 1-3.7h.7l-1.4 5h-.9zm4 0h-.8v-5h.8v5zm-.8-6.3v-.4l.4-.1h.3l.2.5c0 .1 0 .3-.2.3l-.3.2c-.1 0-.2 0-.3-.2l-.1-.3zm4 5.8a2.7 2.7 0 00.7-.1v.6h-.4l-.4.1c-1 0-1.5-.5-1.5-1.5v-3h-.7v-.4l.7-.3.4-1h.4v1.1h1.4v.6H209v3c0 .2 0 .5.2.6.2.2.3.3.6.3zm5.1.5v-3.2c0-.4 0-.7-.3-1l-.8-.2c-.6 0-1 .1-1.2.4-.2.3-.4.7-.4 1.4v2.6h-.7v-7h.7v2.7l.7-.6a2 2 0 011-.2c.5 0 1 .2 1.3.5.3.3.5.7.5 1.4v3.2h-.8zm9-2.5c0 .8-.2 1.5-.6 2-.4.4-1 .6-1.7.6l-1.2-.3a2 2 0 01-.8-1l-.2-1.3c0-.8.2-1.4.6-1.9.4-.4 1-.7 1.7-.7s1.2.3 1.6.7c.4.5.7 1.1.7 2zm-3.8 0c0 .6.2 1.1.4 1.5.3.3.7.5 1.2.5.4 0 .8-.2 1-.5.3-.4.5-.9.5-1.5s-.2-1.1-.4-1.4c-.3-.4-.7-.5-1.2-.5s-.8.1-1 .5c-.3.3-.5.8-.5 1.4zm5.9-2.5v3.3c0 .4 0 .7.3.9.2.2.4.3.8.3.6 0 1-.2 1.2-.5.2-.2.3-.7.3-1.4v-2.6h.8v5h-.6l-.1-.7c-.2.3-.4.5-.7.6l-1 .2c-.6 0-1-.1-1.3-.4-.3-.3-.5-.8-.5-1.4v-3.3h.8zm7.3 0h.6l-.1.7h-.6c-.4 0-.7 0-1 .4-.3.3-.4.7-.4 1.2v2.7h-.8v-5h.6l.1 1c.2-.4.5-.6.7-.8l.9-.3zm8 0v.5l-.9.1.2.4.1.6c0 .5-.1.9-.5 1.2a2 2 0 01-1.3.4h-.5c-.3.1-.4.4-.4.6l.1.3.6.1h.9c.5 0 1 .1 1.2.4.3.2.5.5.5 1s-.2 1-.7 1.2c-.4.3-1 .5-2 .5-.6 0-1-.2-1.4-.4-.4-.3-.6-.6-.6-1 0-.3.1-.6.3-.8.2-.3.5-.4.8-.5a.8.8 0 01-.3-.3l-.1-.4.1-.5.5-.4c-.3 0-.5-.2-.6-.5-.2-.2-.3-.5-.3-.9 0-.5.2-1 .5-1.2a2 2 0 011.4-.5l.7.1h1.7zm-4 5.8c0 .3.2.5.4.7l1 .2c.6 0 1-.1 1.4-.3.3-.2.4-.5.4-.8 0-.3 0-.4-.2-.6l-1-.1h-.9c-.3 0-.6 0-.8.2-.2.2-.2.4-.2.7zm.5-4.2c0 .4 0 .6.3.8.2.2.4.3.8.3.7 0 1-.4 1-1.1 0-.8-.3-1.1-1-1.1-.4 0-.7 0-.8.3-.2.2-.3.4-.3.8zm7.6 3.4l-.1-.7-.8.6-1 .2c-.4 0-.8-.1-1-.4-.4-.2-.5-.6-.5-1 0-1 .8-1.6 2.4-1.7h.9v-.3c0-.4-.1-.7-.3-.9-.2-.2-.4-.2-.8-.2s-.9 0-1.4.3l-.3-.5a3.5 3.5 0 011.7-.5c.6 0 1 .2 1.4.4.3.3.4.7.4 1.3v3.4h-.6zm-1.7-.5c.5 0 .9-.2 1.1-.4.3-.3.4-.6.4-1.1v-.4h-.7c-.6 0-1 .1-1.3.3-.3.1-.4.4-.4.7 0 .3 0 .5.2.7l.7.2zm4.6.5h-.7v-7h.7v7zm2.4 0h-.8v-7h.8v7zm3.7.1c-.7 0-1.3-.2-1.8-.7-.4-.4-.6-1-.6-1.8 0-.9.2-1.5.6-2a2 2 0 011.6-.7c.6 0 1.1.2 1.5.6.3.5.5 1 .5 1.7v.4h-3.4c0 .6.1 1 .4 1.4.3.3.7.4 1.2.4.6 0 1 0 1.6-.3v.7a4 4 0 01-1.6.3zm-.2-4.5c-.4 0-.7 0-1 .3-.2.3-.4.7-.4 1.1h2.6c0-.4 0-.8-.3-1-.2-.3-.5-.4-1-.4zm5.6-.7h.6l-.1.8h-.6c-.4 0-.7 0-1 .4-.3.3-.4.7-.4 1.2v2.7h-.8v-5h.6l.1 1 .7-.8.9-.3zm.7.1h.8l1.1 2.9.5 1.4.3-.8 1.2-3.5h.8l-2.1 5.7c-.2.6-.5 1-.8 1.2-.3.2-.6.4-1 .4a3 3 0 01-.7-.1v-.6h.6c.5 0 .9-.3 1-.9l.4-.7-2-5z" fill="#282F36" fill-opacity=".6"/></g></g><defs><clipPath id="clip0"><path fill="#fff" transform="translate(149 67.1)" d="M0 0h23.3v25.6H0z"/></clipPath><clipPath id="clip1"><path fill="#fff" transform="translate(149 137.8)" d="M0 0h23.3v25.6H0z"/></clipPath><clipPath id="clip2"><path fill="#fff" transform="translate(149 208.6)" d="M0 0h23.3v25.6H0z"/></clipPath><clipPath id="clip3"><path fill="#fff" transform="translate(149 279.3)" d="M0 0h23.3v25.6H0z"/></clipPath><clipPath id="clip4"><path fill="#fff" transform="translate(343.6 67.1)" d="M0 0h23.3v25.6H0z"/></clipPath><clipPath id="clip5"><path fill="#fff" transform="translate(343.6 137.8)" d="M0 0h23.3v25.6H0z"/></clipPath><clipPath id="clip6"><path fill="#fff" transform="translate(343.6 208.6)" d="M0 0h23.3v25.6H0z"/></clipPath><clipPath id="clip7"><path fill="#fff" transform="translate(343.6 279.3)" d="M0 0h23.3v25.6H0z"/></clipPath><clipPath id="clip8"><rect x="51.9" y="74.1" width="236.6" height="310.9" rx="10.6" fill="#fff"/></clipPath><clipPath id="clip9"><path fill="#fff" transform="translate(75.6 181)" d="M0 0h11.5v11.5H0z"/></clipPath><clipPath id="clip10"><path fill="#fff" transform="translate(76.3 225.6)" d="M0 0h10.1v11.5H0z"/></clipPath><clipPath id="clip11"><path fill="#fff" transform="translate(75.6 270.1)" d="M0 0h11.5v11.5H0z"/></clipPath><clipPath id="clip12"><path fill="#fff" transform="translate(75.6 314.6)" d="M0 0h11.5v11.5H0z"/></clipPath><clipPath id="clip13"><path fill="#fff" transform="translate(75.6 359.8)" d="M0 0h11.5v10.2H0z"/></clipPath><filter id="filter0_d" x="75" y=".4" width="494.3" height="370.1" filterUnits="userSpaceOnUse" color-interpolation-filters="sRGB"><feFlood flood-opacity="0" result="BackgroundImageFix"/><feColorMatrix in="SourceAlpha" values="0 0 0 0 0 0 0 0 0 0 0 0 0 0 0 0 0 0 127 0"/><feOffset dy="6.4"/><feGaussianBlur stdDeviation="16"/><feColorMatrix values="0 0 0 0 0 0 0 0 0 0 0 0 0 0 0 0 0 0 0.1 0"/><feBlend in2="BackgroundImageFix" result="effect1_dropShadow"/><feBlend in="SourceGraphic" in2="effect1_dropShadow" result="shape"/></filter><filter id="filter1_d" x=".7" y="26.3" width="350.2" height="413.4" filterUnits="userSpaceOnUse" color-interpolation-filters="sRGB"><feFlood flood-opacity="0" result="BackgroundImageFix"/><feColorMatrix in="SourceAlpha" values="0 0 0 0 0 0 0 0 0 0 0 0 0 0 0 0 0 0 127 0"/><feOffset dy="3.4"/><feGaussianBlur stdDeviation="25.6"/><feColorMatrix values="0 0 0 0 0 0 0 0 0 0 0 0 0 0 0 0 0 0 0.1 0"/><feBlend in2="BackgroundImageFix" result="effect1_dropShadow"/><feBlend in="SourceGraphic" in2="effect1_dropShadow" result="shape"/></filter></defs></svg>